
<svg xmlns="http://www.w3.org/2000/svg" xmlns:xlink="http://www.w3.org/1999/xlink" width="30px" height="30px" viewBox="0 0 30 30" version="1.1">
<g>
<path d="M 22.5 0 L 7.5 0 C 5.953125 0 4.6875 1.265625 4.6875 2.8125 L 4.6875 27.1875 C 4.6875 28.734375 5.953125 30 7.5 30 L 22.5 30 C 24.046875 30 25.3125 28.734375 25.3125 27.1875 L 25.3125 2.8125 C 25.3125 1.265625 24.046875 0 22.5 0 Z M 17.8125 26.203125 C 17.8125 26.765625 17.390625 27.1875 16.875 27.1875 L 13.078125 27.1875 C 12.609375 27.1875 12.1875 26.765625 12.1875 26.25 C 12.1875 25.734375 12.609375 25.3125 13.125 25.3125 L 16.875 25.3125 C 17.390625 25.3125 17.8125 25.734375 17.8125 26.203125 Z M 21.5625 22.5 L 8.4375 22.5 L 8.4375 3.75 L 21.5625 3.75 Z M 21.5625 22.5 "/>
</g>
</svg>
