
<svg xmlns="http://www.w3.org/2000/svg" xmlns:xlink="http://www.w3.org/1999/xlink" width="30px" height="30px" viewBox="0 0 30 34" version="1.1">
<g >
<path d="M 28.441406 19.910156 C 28.632812 18.980469 28.753906 17.988281 28.753906 17 C 28.753906 9.460938 22.601562 3.367188 15.007812 3.367188 C 14.007812 3.367188 13.019531 3.480469 12.074219 3.679688 C 10.800781 2.703125 9.222656 2.125 7.5 2.125 C 3.363281 2.125 0 5.457031 0 9.5625 C 0 11.269531 0.582031 12.835938 1.558594 14.089844 C 1.367188 15.019531 1.246094 16.011719 1.246094 17 C 1.246094 24.539062 7.398438 30.632812 14.992188 30.632812 C 15.992188 30.632812 16.980469 30.519531 17.925781 30.320312 C 19.199219 31.289062 20.777344 31.867188 22.492188 31.867188 C 26.632812 31.867188 29.992188 28.535156 29.992188 24.429688 C 30 22.730469 29.417969 21.164062 28.441406 19.910156 Z M 15.410156 25.984375 C 11.015625 25.984375 7.339844 24.046875 7.339844 21.667969 C 7.339844 20.605469 7.941406 19.636719 9.316406 19.636719 C 11.402344 19.636719 11.597656 22.617188 15.214844 22.617188 C 16.933594 22.617188 18.046875 21.859375 18.046875 20.871094 C 18.046875 19.628906 16.976562 19.4375 15.234375 19.011719 C 11.050781 17.988281 7.347656 17.550781 7.347656 13.222656 C 7.347656 9.289062 11.269531 7.835938 14.652344 7.835938 C 18.339844 7.835938 22.070312 9.289062 22.070312 11.515625 C 22.070312 12.636719 21.308594 13.625 20.042969 13.625 C 18.148438 13.625 18.085938 11.402344 15.019531 11.402344 C 13.300781 11.402344 12.207031 11.867188 12.207031 12.894531 C 12.207031 14.210938 13.601562 14.34375 16.835938 15.085938 C 19.605469 15.703125 22.910156 16.867188 22.910156 20.242188 C 22.910156 24.164062 19.085938 25.984375 15.410156 25.984375 Z M 15.410156 25.984375 "/>
</g>
</svg>
