
<svg xmlns="http://www.w3.org/2000/svg" xmlns:xlink="http://www.w3.org/1999/xlink" width="50px" height="50px" viewBox="0 0 50 57" version="1.1">
<g>
<path d="M 48.949219 31.015625 L 31.09375 48.828125 C 30.402344 49.53125 29.488281 49.875 28.570312 49.875 C 27.65625 49.875 26.742188 49.527344 26.046875 48.832031 C 24.652344 47.441406 24.652344 45.183594 26.046875 43.792969 L 37.8125 32.0625 L 3.570312 32.0625 C 1.597656 32.0625 0 30.46875 0 28.5 C 0 26.53125 1.597656 24.9375 3.570312 24.9375 L 37.8125 24.9375 L 26.050781 13.203125 C 24.652344 11.8125 24.652344 9.558594 26.050781 8.164062 C 27.445312 6.773438 29.703125 6.773438 31.097656 8.164062 L 48.957031 25.976562 C 50.347656 27.375 50.347656 29.625 48.949219 31.015625 Z M 48.949219 31.015625 "/>
</g>
</svg>
