
<svg xmlns="http://www.w3.org/2000/svg" xmlns:xlink="http://www.w3.org/1999/xlink" width="50px" height="50px" viewBox="0 0 50 57" version="1.1">
<g>
<path d="M 49.902344 28.5 C 49.902344 30.40625 48.40625 31.945312 46.433594 31.945312 L 12.199219 31.945312 L 23.964844 43.285156 C 25.359375 44.636719 25.359375 46.808594 23.964844 48.152344 C 23.257812 48.828125 22.339844 49.164062 21.433594 49.164062 C 20.515625 49.164062 19.597656 48.828125 18.90625 48.152344 L 1.042969 30.933594 C -0.34375 29.589844 -0.34375 27.410156 1.042969 26.066406 L 18.90625 8.847656 C 20.296875 7.503906 22.558594 7.503906 23.957031 8.847656 C 25.351562 10.191406 25.351562 12.371094 23.957031 13.714844 L 12.199219 25.054688 L 46.433594 25.054688 C 48.40625 25.054688 49.902344 26.59375 49.902344 28.5 Z M 49.902344 28.5 "/>
</g>
</svg>
