<?xml version="1.0" encoding="UTF-8" standalone="no" ?>
<!DOCTYPE svg PUBLIC "-//W3C//DTD SVG 1.1//EN" "http://www.w3.org/Graphics/SVG/1.1/DTD/svg11.dtd">
<svg xmlns="http://www.w3.org/2000/svg" xmlns:xlink="http://www.w3.org/1999/xlink" version="1.1" width="1500" height="1500" viewBox="0 0 500 500" xml:space="preserve">
<desc>Created with Fabric.js 4.6.0</desc>
<defs>
</defs>
<g transform="matrix(0.98 0 0 1 236.65 200)" id="Kva-_wygq2wT92vc8qQl6"  >
<path style="stroke: rgb(242,1,1); stroke-width: 4; stroke-dasharray: none; stroke-linecap: butt; stroke-dashoffset: 0; stroke-linejoin: miter; stroke-miterlimit: 4; fill: rgb(255,255,255); fill-opacity: 0; fill-rule: nonzero; opacity: 1;" vector-effect="non-scaling-stroke"  transform=" translate(0, 0)" d="M -213.31085 -86.67781 L 140.28268 -86.13879999999999 L 151.21173 -85.56298999999999 C 151.21173 -85.56298999999999 156.28200999999999 -84.74292999999999 161.87014 -82.19787999999998 C 165.8938 -80.36533999999999 170.77737 -77.92746999999999 175.6731 -74.96259999999998 C 182.38451 -70.89814999999999 189.11875 -65.84332999999998 193.69179 -59.99999999999998 C 197.85908 -54.67512999999998 201.61704 -48.47268999999998 204.7776 -42.56374999999998 C 211.12902 -30.689229999999977 212.21602000000001 -19.99999999999998 212.21602000000001 -19.99999999999998 L 213.30896 24.84343000000002 L 213.30896 24.84343000000002 C 213.32298 25.42188000000002 213.25882000000001 25.99960000000002 213.11815 26.56164000000002 C 211.43667000000002 33.27947000000002 211.62853 40.72190000000002 208.21751 46.964320000000015 C 205.23407 52.42424000000001 200.85661000000002 57.991740000000014 193.63995 64.45931000000002 C 188.21619 69.32008000000002 181.63045 73.06708000000002 175.27922999999998 75.89942000000002 C 162.75937 81.48268000000002 151.15084 83.51171000000002 151.15084 83.51171000000002 L -213.31085 86.67782000000003" stroke-linecap="round" />
</g>
<g transform="matrix(0.04 0 0 0.04 173.55 113.02)" id="u8rt16h9oVIQkKRbr7b5L"  >
<path style="stroke: none; stroke-width: 1; stroke-dasharray: none; stroke-linecap: butt; stroke-dashoffset: 0; stroke-linejoin: miter; stroke-miterlimit: 4; fill: rgb(228,30,65); fill-rule: nonzero; opacity: 1;" vector-effect="non-scaling-stroke"  transform=" translate(-300, -300)" d="M 0 103.174 L 149.206 103.174 L 346.032 300 L 149.207 496.826 L 0 496.826 L 196.825 300 L 0 103.174 z M 450.793 300 L 253.969 496.826 L 403.17499999999995 496.826 L 600 300 L 403.174 103.174 L 253.968 103.174 L 450.793 300 z" stroke-linecap="round" />
</g>
<g transform="matrix(0.05 0 0 0.05 325.91 113.37)" id="Iqdf01qUjQoVQBinEPJT1"  >
<path style="stroke: none; stroke-width: 1; stroke-dasharray: none; stroke-linecap: butt; stroke-dashoffset: 0; stroke-linejoin: miter; stroke-miterlimit: 4; fill: rgb(228,30,65); fill-rule: nonzero; opacity: 1;" vector-effect="non-scaling-stroke"  transform=" translate(-300, -300)" d="M 0 103.174 L 149.206 103.174 L 346.032 300 L 149.207 496.826 L 0 496.826 L 196.825 300 L 0 103.174 z M 450.793 300 L 253.969 496.826 L 403.17499999999995 496.826 L 600 300 L 403.174 103.174 L 253.968 103.174 L 450.793 300 z" stroke-linecap="round" />
</g>
<g transform="matrix(-0.05 0 0 -0.05 324.5 283.61)" id="mBuHv4BRoOUjVBOACabCL"  >
<path style="stroke: none; stroke-width: 1; stroke-dasharray: none; stroke-linecap: butt; stroke-dashoffset: 0; stroke-linejoin: miter; stroke-miterlimit: 4; fill: rgb(228,30,65); fill-rule: nonzero; opacity: 1;" vector-effect="non-scaling-stroke"  transform=" translate(-300, -300)" d="M 0 103.174 L 149.206 103.174 L 346.032 300 L 149.207 496.826 L 0 496.826 L 196.825 300 L 0 103.174 z M 450.793 300 L 253.969 496.826 L 403.17499999999995 496.826 L 600 300 L 403.174 103.174 L 253.968 103.174 L 450.793 300 z" stroke-linecap="round" />
</g>
<g transform="matrix(-0.05 0 0 -0.05 164.5 284.98)" id="cIM_cXbE7oNn6gfI2faZv"  >
<path style="stroke: none; stroke-width: 1; stroke-dasharray: none; stroke-linecap: butt; stroke-dashoffset: 0; stroke-linejoin: miter; stroke-miterlimit: 4; fill: rgb(228,30,65); fill-rule: nonzero; opacity: 1;" vector-effect="non-scaling-stroke"  transform=" translate(-300, -300)" d="M 0 103.174 L 149.206 103.174 L 346.032 300 L 149.207 496.826 L 0 496.826 L 196.825 300 L 0 103.174 z M 450.793 300 L 253.969 496.826 L 403.17499999999995 496.826 L 600 300 L 403.174 103.174 L 253.968 103.174 L 450.793 300 z" stroke-linecap="round" />
</g>
<g transform="matrix(0 0.05 -0.05 0 445.12 197.77)" id="OueU8qUBgQIO0gzVDIcsD"  >
<path style="stroke: none; stroke-width: 1; stroke-dasharray: none; stroke-linecap: butt; stroke-dashoffset: 0; stroke-linejoin: miter; stroke-miterlimit: 4; fill: rgb(228,30,65); fill-rule: nonzero; opacity: 1;" vector-effect="non-scaling-stroke"  transform=" translate(-300, -300)" d="M 0 103.174 L 149.206 103.174 L 346.032 300 L 149.207 496.826 L 0 496.826 L 196.825 300 L 0 103.174 z M 450.793 300 L 253.969 496.826 L 403.17499999999995 496.826 L 600 300 L 403.174 103.174 L 253.968 103.174 L 450.793 300 z" stroke-linecap="round" />
</g>
<g transform="matrix(0.01 0 0 0.01 310.48 181.76)" id="MECGeN_08-f4WSYmOQSci"  >
<path style="stroke: none; stroke-width: 1; stroke-dasharray: none; stroke-linecap: butt; stroke-dashoffset: 0; stroke-linejoin: miter; stroke-miterlimit: 4; fill: rgb(21,185,229); fill-rule: nonzero; opacity: 1;" vector-effect="non-scaling-stroke"  transform=" translate(-300.78, -299.96)" d="M 92.359 299.958 C 92.359 301.75 90.911 303.20200000000006 89.11999999999999 303.20200000000006 L 45.786 303.20200000000006 C 43.989000000000004 303.20200000000006 42.536 301.75000000000006 42.536 299.958 C 42.536 298.161 43.988 296.708 45.786 296.708 L 89.12 296.708 C 90.912 296.708 92.359 298.16 92.359 299.958 z M 222.452 296.708 L 179.118 296.708 C 177.326 296.708 175.868 298.16 175.868 299.958 C 175.868 301.75 177.326 303.20200000000006 179.118 303.20200000000006 L 222.452 303.20200000000006 C 224.245 303.20200000000006 225.694 301.75000000000006 225.694 299.958 C 225.694 298.16 224.245 296.708 222.452 296.708 z M 355.778 296.708 L 312.442 296.708 C 310.651 296.708 309.201 298.16 309.201 299.958 C 309.201 301.75 310.651 303.20200000000006 312.442 303.20200000000006 L 355.778 303.20200000000006 C 357.569 303.20200000000006 359.028 301.75000000000006 359.028 299.958 C 359.028 298.16 357.569 296.708 355.778 296.708 z M 155.782 296.708 L 112.44800000000001 296.708 C 110.656 296.708 109.203 298.16 109.203 299.958 C 109.203 301.75 110.657 303.20200000000006 112.44800000000001 303.20200000000006 L 155.782 303.20200000000006 C 157.579 303.20200000000006 159.02700000000002 301.75000000000006 159.02700000000002 299.958 C 159.027 298.16 157.579 296.708 155.782 296.708 z M 289.114 296.708 L 245.78099999999998 296.708 C 243.98799999999997 296.708 242.53999999999996 298.16 242.53999999999996 299.958 C 242.53999999999996 301.75 243.98799999999997 303.20200000000006 245.78099999999998 303.20200000000006 L 289.114 303.20200000000006 C 290.90799999999996 303.20200000000006 292.36499999999995 301.75000000000006 292.36499999999995 299.958 C 292.365 298.16 290.908 296.708 289.114 296.708 z M 422.45 296.708 L 379.114 296.708 C 377.31699999999995 296.708 375.86499999999995 298.16 375.86499999999995 299.958 C 375.86499999999995 301.75 377.31699999999995 303.20200000000006 379.114 303.20200000000006 L 422.45 303.20200000000006 C 424.241 303.20200000000006 425.694 301.75000000000006 425.694 299.958 C 425.694 298.16 424.241 296.708 422.45 296.708 z M 555.782 296.708 L 512.4490000000001 296.708 C 510.65200000000004 296.708 509.1960000000001 298.16 509.1960000000001 299.958 C 509.1960000000001 301.75 510.6520000000001 303.20200000000006 512.4490000000001 303.20200000000006 L 555.782 303.20200000000006 C 557.5730000000001 303.20200000000006 559.0260000000001 301.75000000000006 559.0260000000001 299.958 C 559.026 298.16 557.573 296.708 555.782 296.708 z M 489.11 296.708 L 445.78000000000003 296.708 C 443.983 296.708 442.533 298.16 442.533 299.958 C 442.533 301.75 443.983 303.20200000000006 445.78000000000003 303.20200000000006 L 489.11 303.20200000000006 C 490.904 303.20200000000006 492.36 301.75000000000006 492.36 299.958 C 492.36 298.16 490.904 296.708 489.11 296.708 z M 579.118 296.708 C 577.321 296.708 575.868 298.16 575.868 299.958 C 575.868 301.75 577.321 303.20200000000006 579.118 303.20200000000006 L 600.7840000000001 303.20200000000006 L 600.7840000000001 296.70900000000006 L 579.118 296.70900000000006 z M 22.447 296.708 L 0.783 296.708 L 0.783 303.201 L 22.447000000000003 303.201 C 24.244000000000003 303.201 25.698000000000004 301.75 25.698000000000004 299.95300000000003 C 25.698 298.162 24.244 296.708 22.447 296.708 z" stroke-linecap="round" />
</g>
</svg>