<svg width="889" height="264" viewBox="0 0 889 264" fill="none" xmlns="http://www.w3.org/2000/svg">
<rect width="889" height="264" fill="transparent"/>
<g style="mix-blend-mode:darken" filter="url(#filter0_d_0_1)">
<path d="M12 16C12 20.4183 15.5817 24 20 24C24.4183 24 28 20.4183 28 16C28 11.5817 24.4183 8 20 8C15.5817 8 12 11.5817 12 16ZM804.5 238L804.529 236.5L804.515 236.5H804.5V238ZM20 238L35 246.66V229.34L20 238ZM23.029 17.5C23.8574 17.5 24.529 16.8284 24.529 16C24.529 15.1716 23.8574 14.5 23.029 14.5V17.5ZM38.1737 14.5C37.3453 14.5 36.6737 15.1716 36.6737 16C36.6737 16.8284 37.3453 17.5 38.1737 17.5V14.5ZM44.2317 17.5C45.0601 17.5 45.7317 16.8284 45.7317 16C45.7317 15.1716 45.0601 14.5 44.2317 14.5V17.5ZM59.3764 14.5C58.548 14.5 57.8764 15.1716 57.8764 16C57.8764 16.8284 58.548 17.5 59.3764 17.5V14.5ZM65.4344 17.5C66.2628 17.5 66.9344 16.8284 66.9344 16C66.9344 15.1716 66.2628 14.5 65.4344 14.5V17.5ZM80.5791 14.5C79.7507 14.5 79.0791 15.1716 79.0791 16C79.0791 16.8284 79.7507 17.5 80.5791 17.5V14.5ZM86.6371 17.5C87.4655 17.5 88.1371 16.8284 88.1371 16C88.1371 15.1716 87.4655 14.5 86.6371 14.5V17.5ZM101.782 14.5C100.953 14.5 100.282 15.1716 100.282 16C100.282 16.8284 100.953 17.5 101.782 17.5V14.5ZM107.84 17.5C108.668 17.5 109.34 16.8284 109.34 16C109.34 15.1716 108.668 14.5 107.84 14.5V17.5ZM122.985 14.5C122.156 14.5 121.485 15.1716 121.485 16C121.485 16.8284 122.156 17.5 122.985 17.5V14.5ZM129.042 17.5C129.871 17.5 130.542 16.8284 130.542 16C130.542 15.1716 129.871 14.5 129.042 14.5V17.5ZM144.187 14.5C143.359 14.5 142.687 15.1716 142.687 16C142.687 16.8284 143.359 17.5 144.187 17.5V14.5ZM150.245 17.5C151.074 17.5 151.745 16.8284 151.745 16C151.745 15.1716 151.074 14.5 150.245 14.5V17.5ZM165.39 14.5C164.562 14.5 163.89 15.1716 163.89 16C163.89 16.8284 164.562 17.5 165.39 17.5V14.5ZM171.448 17.5C172.276 17.5 172.948 16.8284 172.948 16C172.948 15.1716 172.276 14.5 171.448 14.5V17.5ZM186.593 14.5C185.764 14.5 185.093 15.1716 185.093 16C185.093 16.8284 185.764 17.5 186.593 17.5V14.5ZM192.651 17.5C193.479 17.5 194.151 16.8284 194.151 16C194.151 15.1716 193.479 14.5 192.651 14.5V17.5ZM207.795 14.5C206.967 14.5 206.295 15.1716 206.295 16C206.295 16.8284 206.967 17.5 207.795 17.5V14.5ZM213.853 17.5C214.682 17.5 215.353 16.8284 215.353 16C215.353 15.1716 214.682 14.5 213.853 14.5V17.5ZM228.998 14.5C228.17 14.5 227.498 15.1716 227.498 16C227.498 16.8284 228.17 17.5 228.998 17.5V14.5ZM235.056 17.5C235.884 17.5 236.556 16.8284 236.556 16C236.556 15.1716 235.884 14.5 235.056 14.5V17.5ZM250.201 14.5C249.372 14.5 248.701 15.1716 248.701 16C248.701 16.8284 249.372 17.5 250.201 17.5V14.5ZM256.259 17.5C257.087 17.5 257.759 16.8284 257.759 16C257.759 15.1716 257.087 14.5 256.259 14.5V17.5ZM271.404 14.5C270.575 14.5 269.904 15.1716 269.904 16C269.904 16.8284 270.575 17.5 271.404 17.5V14.5ZM277.461 17.5C278.29 17.5 278.961 16.8284 278.961 16C278.961 15.1716 278.29 14.5 277.461 14.5V17.5ZM292.606 14.5C291.778 14.5 291.106 15.1716 291.106 16C291.106 16.8284 291.778 17.5 292.606 17.5V14.5ZM298.664 17.5C299.493 17.5 300.164 16.8284 300.164 16C300.164 15.1716 299.493 14.5 298.664 14.5V17.5ZM313.809 14.5C312.981 14.5 312.309 15.1716 312.309 16C312.309 16.8284 312.981 17.5 313.809 17.5V14.5ZM319.867 17.5C320.695 17.5 321.367 16.8284 321.367 16C321.367 15.1716 320.695 14.5 319.867 14.5V17.5ZM335.012 14.5C334.183 14.5 333.512 15.1716 333.512 16C333.512 16.8284 334.183 17.5 335.012 17.5V14.5ZM341.07 17.5C341.898 17.5 342.57 16.8284 342.57 16C342.57 15.1716 341.898 14.5 341.07 14.5V17.5ZM356.214 14.5C355.386 14.5 354.714 15.1716 354.714 16C354.714 16.8284 355.386 17.5 356.214 17.5V14.5ZM362.272 17.5C363.101 17.5 363.772 16.8284 363.772 16C363.772 15.1716 363.101 14.5 362.272 14.5V17.5ZM377.417 14.5C376.589 14.5 375.917 15.1716 375.917 16C375.917 16.8284 376.589 17.5 377.417 17.5V14.5ZM383.475 17.5C384.303 17.5 384.975 16.8284 384.975 16C384.975 15.1716 384.303 14.5 383.475 14.5V17.5ZM398.62 14.5C397.791 14.5 397.12 15.1716 397.12 16C397.12 16.8284 397.791 17.5 398.62 17.5V14.5ZM404.678 17.5C405.506 17.5 406.178 16.8284 406.178 16C406.178 15.1716 405.506 14.5 404.678 14.5V17.5ZM419.822 14.5C418.994 14.5 418.322 15.1716 418.322 16C418.322 16.8284 418.994 17.5 419.822 17.5V14.5ZM425.88 17.5C426.709 17.5 427.38 16.8284 427.38 16C427.38 15.1716 426.709 14.5 425.88 14.5V17.5ZM441.025 14.5C440.197 14.5 439.525 15.1716 439.525 16C439.525 16.8284 440.197 17.5 441.025 17.5V14.5ZM447.083 17.5C447.911 17.5 448.583 16.8284 448.583 16C448.583 15.1716 447.911 14.5 447.083 14.5V17.5ZM462.228 14.5C461.399 14.5 460.728 15.1716 460.728 16C460.728 16.8284 461.399 17.5 462.228 17.5V14.5ZM468.286 17.5C469.114 17.5 469.786 16.8284 469.786 16C469.786 15.1716 469.114 14.5 468.286 14.5V17.5ZM483.43 14.5C482.602 14.5 481.93 15.1716 481.93 16C481.93 16.8284 482.602 17.5 483.43 17.5V14.5ZM489.488 17.5C490.317 17.5 490.988 16.8284 490.988 16C490.988 15.1716 490.317 14.5 489.488 14.5V17.5ZM504.633 14.5C503.805 14.5 503.133 15.1716 503.133 16C503.133 16.8284 503.805 17.5 504.633 17.5V14.5ZM510.691 17.5C511.52 17.5 512.191 16.8284 512.191 16C512.191 15.1716 511.52 14.5 510.691 14.5V17.5ZM525.836 14.5C525.007 14.5 524.336 15.1716 524.336 16C524.336 16.8284 525.007 17.5 525.836 17.5V14.5ZM531.894 17.5C532.722 17.5 533.394 16.8284 533.394 16C533.394 15.1716 532.722 14.5 531.894 14.5V17.5ZM547.039 14.5C546.21 14.5 545.539 15.1716 545.539 16C545.539 16.8284 546.21 17.5 547.039 17.5V14.5ZM553.097 17.5C553.925 17.5 554.597 16.8284 554.597 16C554.597 15.1716 553.925 14.5 553.097 14.5V17.5ZM568.241 14.5C567.413 14.5 566.741 15.1716 566.741 16C566.741 16.8284 567.413 17.5 568.241 17.5V14.5ZM574.299 17.5C575.128 17.5 575.799 16.8284 575.799 16C575.799 15.1716 575.128 14.5 574.299 14.5V17.5ZM589.444 14.5C588.616 14.5 587.944 15.1716 587.944 16C587.944 16.8284 588.616 17.5 589.444 17.5V14.5ZM595.502 17.5C596.33 17.5 597.002 16.8284 597.002 16C597.002 15.1716 596.33 14.5 595.502 14.5V17.5ZM610.647 14.5C609.818 14.5 609.147 15.1716 609.147 16C609.147 16.8284 609.818 17.5 610.647 17.5V14.5ZM616.705 17.5C617.533 17.5 618.205 16.8284 618.205 16C618.205 15.1716 617.533 14.5 616.705 14.5V17.5ZM631.849 14.5C631.021 14.5 630.349 15.1716 630.349 16C630.349 16.8284 631.021 17.5 631.849 17.5V14.5ZM637.907 17.5C638.736 17.5 639.407 16.8284 639.407 16C639.407 15.1716 638.736 14.5 637.907 14.5V17.5ZM653.052 14.5C652.224 14.5 651.552 15.1716 651.552 16C651.552 16.8284 652.224 17.5 653.052 17.5V14.5ZM659.11 17.5C659.938 17.5 660.61 16.8284 660.61 16C660.61 15.1716 659.938 14.5 659.11 14.5V17.5ZM674.255 14.5C673.426 14.5 672.755 15.1716 672.755 16C672.755 16.8284 673.426 17.5 674.255 17.5V14.5ZM680.313 17.5C681.141 17.5 681.813 16.8284 681.813 16C681.813 15.1716 681.141 14.5 680.313 14.5V17.5ZM695.458 14.5C694.629 14.5 693.958 15.1716 693.958 16C693.958 16.8284 694.629 17.5 695.458 17.5V14.5ZM701.515 17.5C702.344 17.5 703.015 16.8284 703.015 16C703.015 15.1716 702.344 14.5 701.515 14.5V17.5ZM716.66 14.5C715.832 14.5 715.16 15.1716 715.16 16C715.16 16.8284 715.832 17.5 716.66 17.5V14.5ZM722.718 17.5C723.547 17.5 724.218 16.8284 724.218 16C724.218 15.1716 723.547 14.5 722.718 14.5V17.5ZM737.863 14.5C737.034 14.5 736.363 15.1716 736.363 16C736.363 16.8284 737.034 17.5 737.863 17.5V14.5ZM743.921 17.5C744.749 17.5 745.421 16.8284 745.421 16C745.421 15.1716 744.749 14.5 743.921 14.5V17.5ZM759.066 14.5C758.237 14.5 757.566 15.1716 757.566 16C757.566 16.8284 758.237 17.5 759.066 17.5V14.5ZM765.124 17.5C765.952 17.5 766.624 16.8284 766.624 16C766.624 15.1716 765.952 14.5 765.124 14.5V17.5ZM780.268 14.5C779.44 14.5 778.768 15.1716 778.768 16C778.768 16.8284 779.44 17.5 780.268 17.5V14.5ZM786.326 17.5C787.155 17.5 787.826 16.8284 787.826 16C787.826 15.1716 787.155 14.5 786.326 14.5V17.5ZM801.471 14.5C800.643 14.5 799.971 15.1716 799.971 16C799.971 16.8284 800.643 17.5 801.471 17.5V14.5ZM807.664 17.5357C808.492 17.5545 809.179 16.8984 809.198 16.0702C809.217 15.2419 808.561 14.5553 807.732 14.5364L807.664 17.5357ZM823.554 15.8988C822.735 15.7707 821.968 16.3304 821.84 17.1489C821.712 17.9674 822.272 18.7347 823.09 18.8627L823.554 15.8988ZM829.164 20.0105C829.972 20.191 830.774 19.6819 830.955 18.8733C831.135 18.0648 830.626 17.263 829.817 17.0826L829.164 20.0105ZM845.029 22.009C844.271 21.675 843.386 22.0187 843.052 22.7768C842.718 23.5349 843.061 24.4203 843.82 24.7543L845.029 22.009ZM849.337 27.4921C850.062 27.8946 850.975 27.634 851.377 26.9099C851.78 26.1859 851.519 25.2726 850.795 24.8701L849.337 27.4921ZM863.729 34.3667C863.131 33.7936 862.182 33.814 861.608 34.4122C861.035 35.0104 861.056 35.9599 861.654 36.533L863.729 34.3667ZM865.852 41.0126C866.385 41.6467 867.331 41.7286 867.965 41.1956C868.6 40.6625 868.681 39.7163 868.148 39.0821L865.852 41.0126ZM876.784 52.6308C876.432 51.8811 875.538 51.559 874.789 51.9114C874.039 52.2638 873.717 53.1573 874.069 53.907L876.784 52.6308ZM876.409 59.5903C876.687 60.3707 877.546 60.7778 878.326 60.4996C879.106 60.2214 879.513 59.3633 879.235 58.583L876.409 59.5903ZM882.799 74.2456C882.717 73.4212 881.983 72.8188 881.159 72.9001C880.334 72.9814 879.732 73.7156 879.813 74.5401L882.799 74.2456ZM880 80.6714C880 81.4999 880.672 82.1714 881.5 82.1714C882.328 82.1714 883 81.4999 883 80.6714H880ZM883 96.5286C883 95.7001 882.328 95.0286 881.5 95.0286C880.672 95.0286 880 95.7001 880 96.5286H883ZM880 102.871C880 103.7 880.672 104.371 881.5 104.371C882.328 104.371 883 103.7 883 102.871H880ZM883 118.729C883 117.9 882.328 117.229 881.5 117.229C880.672 117.229 880 117.9 880 118.729H883ZM880 125.071C880 125.9 880.672 126.571 881.5 126.571C882.328 126.571 883 125.9 883 125.071H880ZM883 140.929C883 140.1 882.328 139.429 881.5 139.429C880.672 139.429 880 140.1 880 140.929H883ZM880 147.271C880 148.1 880.672 148.771 881.5 148.771C882.328 148.771 883 148.1 883 147.271H880ZM883 163.129C883 162.3 882.328 161.629 881.5 161.629C880.672 161.629 880 162.3 880 163.129H883ZM880 169.471C880 170.3 880.672 170.971 881.5 170.971C882.328 170.971 883 170.3 883 169.471H880ZM883 185.329C883 184.5 882.328 183.829 881.5 183.829C880.672 183.829 880 184.5 880 185.329H883ZM879.781 191.181C879.676 192.002 880.258 192.754 881.08 192.858C881.901 192.963 882.652 192.382 882.757 191.56L879.781 191.181ZM878.47 205.895C878.827 205.148 878.509 204.252 877.761 203.896C877.013 203.54 876.118 203.857 875.762 204.605L878.47 205.895ZM873.039 209.53C872.595 210.229 872.802 211.156 873.501 211.6C874.201 212.044 875.127 211.837 875.571 211.138L873.039 209.53ZM865.789 222.411C866.416 221.87 866.487 220.923 865.947 220.295C865.406 219.668 864.459 219.597 863.831 220.137L865.789 222.411ZM859.353 223.587C858.67 224.058 858.498 224.992 858.968 225.674C859.438 226.356 860.373 226.528 861.055 226.058L859.353 223.587ZM847.931 232.96C848.702 232.657 849.081 231.786 848.778 231.015C848.475 230.244 847.604 229.865 846.833 230.168L847.931 232.96ZM841.454 232.051C840.662 232.295 840.219 233.135 840.464 233.927C840.708 234.718 841.548 235.161 842.34 234.917L841.454 232.051ZM827.955 238.135C828.775 238.013 829.34 237.25 829.218 236.43C829.096 235.611 828.333 235.046 827.513 235.168L827.955 238.135ZM821.818 235.871C820.994 235.953 820.392 236.687 820.474 237.512C820.556 238.336 821.29 238.938 822.114 238.856L821.818 235.871ZM807.458 239.532C808.286 239.534 808.959 238.864 808.961 238.035C808.963 237.207 808.292 236.534 807.464 236.532L807.458 239.532ZM801.471 236.5C800.643 236.5 799.971 237.172 799.971 238C799.971 238.828 800.643 239.5 801.471 239.5V236.5ZM786.326 239.5C787.155 239.5 787.826 238.828 787.826 238C787.826 237.172 787.155 236.5 786.326 236.5V239.5ZM780.268 236.5C779.44 236.5 778.768 237.172 778.768 238C778.768 238.828 779.44 239.5 780.268 239.5V236.5ZM765.124 239.5C765.952 239.5 766.624 238.828 766.624 238C766.624 237.172 765.952 236.5 765.124 236.5V239.5ZM759.066 236.5C758.237 236.5 757.566 237.172 757.566 238C757.566 238.828 758.237 239.5 759.066 239.5V236.5ZM743.921 239.5C744.749 239.5 745.421 238.828 745.421 238C745.421 237.172 744.749 236.5 743.921 236.5V239.5ZM737.863 236.5C737.035 236.5 736.363 237.172 736.363 238C736.363 238.828 737.035 239.5 737.863 239.5V236.5ZM722.718 239.5C723.547 239.5 724.218 238.828 724.218 238C724.218 237.172 723.547 236.5 722.718 236.5V239.5ZM716.66 236.5C715.832 236.5 715.16 237.172 715.16 238C715.16 238.828 715.832 239.5 716.66 239.5V236.5ZM701.515 239.5C702.344 239.5 703.015 238.828 703.015 238C703.015 237.172 702.344 236.5 701.515 236.5V239.5ZM695.458 236.5C694.629 236.5 693.958 237.172 693.958 238C693.958 238.828 694.629 239.5 695.458 239.5V236.5ZM680.313 239.5C681.141 239.5 681.813 238.828 681.813 238C681.813 237.172 681.141 236.5 680.313 236.5V239.5ZM674.255 236.5C673.426 236.5 672.755 237.172 672.755 238C672.755 238.828 673.426 239.5 674.255 239.5V236.5ZM659.11 239.5C659.938 239.5 660.61 238.828 660.61 238C660.61 237.172 659.938 236.5 659.11 236.5V239.5ZM653.052 236.5C652.224 236.5 651.552 237.172 651.552 238C651.552 238.828 652.224 239.5 653.052 239.5V236.5ZM637.907 239.5C638.736 239.5 639.407 238.828 639.407 238C639.407 237.172 638.736 236.5 637.907 236.5V239.5ZM631.849 236.5C631.021 236.5 630.349 237.172 630.349 238C630.349 238.828 631.021 239.5 631.849 239.5V236.5ZM616.705 239.5C617.533 239.5 618.205 238.828 618.205 238C618.205 237.172 617.533 236.5 616.705 236.5V239.5ZM610.647 236.5C609.818 236.5 609.147 237.172 609.147 238C609.147 238.828 609.818 239.5 610.647 239.5V236.5ZM595.502 239.5C596.33 239.5 597.002 238.828 597.002 238C597.002 237.172 596.33 236.5 595.502 236.5V239.5ZM589.444 236.5C588.616 236.5 587.944 237.172 587.944 238C587.944 238.828 588.616 239.5 589.444 239.5V236.5ZM574.299 239.5C575.128 239.5 575.799 238.828 575.799 238C575.799 237.172 575.128 236.5 574.299 236.5V239.5ZM568.241 236.5C567.413 236.5 566.741 237.172 566.741 238C566.741 238.828 567.413 239.5 568.241 239.5V236.5ZM553.096 239.5C553.925 239.5 554.596 238.828 554.596 238C554.596 237.172 553.925 236.5 553.096 236.5V239.5ZM547.039 236.5C546.21 236.5 545.539 237.172 545.539 238C545.539 238.828 546.21 239.5 547.039 239.5V236.5ZM531.894 239.5C532.722 239.5 533.394 238.828 533.394 238C533.394 237.172 532.722 236.5 531.894 236.5V239.5ZM525.836 236.5C525.007 236.5 524.336 237.172 524.336 238C524.336 238.828 525.007 239.5 525.836 239.5V236.5ZM510.691 239.5C511.519 239.5 512.191 238.828 512.191 238C512.191 237.172 511.519 236.5 510.691 236.5V239.5ZM504.633 236.5C503.805 236.5 503.133 237.172 503.133 238C503.133 238.828 503.805 239.5 504.633 239.5V236.5ZM489.488 239.5C490.317 239.5 490.988 238.828 490.988 238C490.988 237.172 490.317 236.5 489.488 236.5V239.5ZM483.43 236.5C482.602 236.5 481.93 237.172 481.93 238C481.93 238.828 482.602 239.5 483.43 239.5V236.5ZM468.286 239.5C469.114 239.5 469.786 238.828 469.786 238C469.786 237.172 469.114 236.5 468.286 236.5V239.5ZM462.228 236.5C461.399 236.5 460.728 237.172 460.728 238C460.728 238.828 461.399 239.5 462.228 239.5V236.5ZM447.083 239.5C447.911 239.5 448.583 238.828 448.583 238C448.583 237.172 447.911 236.5 447.083 236.5V239.5ZM441.025 236.5C440.197 236.5 439.525 237.172 439.525 238C439.525 238.828 440.197 239.5 441.025 239.5V236.5ZM425.88 239.5C426.709 239.5 427.38 238.828 427.38 238C427.38 237.172 426.709 236.5 425.88 236.5V239.5ZM419.822 236.5C418.994 236.5 418.322 237.172 418.322 238C418.322 238.828 418.994 239.5 419.822 239.5V236.5ZM404.678 239.5C405.506 239.5 406.178 238.828 406.178 238C406.178 237.172 405.506 236.5 404.678 236.5V239.5ZM398.62 236.5C397.791 236.5 397.12 237.172 397.12 238C397.12 238.828 397.791 239.5 398.62 239.5V236.5ZM383.475 239.5C384.303 239.5 384.975 238.828 384.975 238C384.975 237.172 384.303 236.5 383.475 236.5V239.5ZM377.417 236.5C376.589 236.5 375.917 237.172 375.917 238C375.917 238.828 376.589 239.5 377.417 239.5V236.5ZM362.272 239.5C363.101 239.5 363.772 238.828 363.772 238C363.772 237.172 363.101 236.5 362.272 236.5V239.5ZM356.214 236.5C355.386 236.5 354.714 237.172 354.714 238C354.714 238.828 355.386 239.5 356.214 239.5V236.5ZM341.07 239.5C341.898 239.5 342.57 238.828 342.57 238C342.57 237.172 341.898 236.5 341.07 236.5V239.5ZM335.012 236.5C334.183 236.5 333.512 237.172 333.512 238C333.512 238.828 334.183 239.5 335.012 239.5V236.5ZM319.867 239.5C320.695 239.5 321.367 238.828 321.367 238C321.367 237.172 320.695 236.5 319.867 236.5V239.5ZM313.809 236.5C312.98 236.5 312.309 237.172 312.309 238C312.309 238.828 312.98 239.5 313.809 239.5V236.5ZM298.664 239.5C299.493 239.5 300.164 238.828 300.164 238C300.164 237.172 299.493 236.5 298.664 236.5V239.5ZM292.606 236.5C291.778 236.5 291.106 237.172 291.106 238C291.106 238.828 291.778 239.5 292.606 239.5V236.5ZM277.461 239.5C278.29 239.5 278.961 238.828 278.961 238C278.961 237.172 278.29 236.5 277.461 236.5V239.5ZM271.403 236.5C270.575 236.5 269.903 237.172 269.903 238C269.903 238.828 270.575 239.5 271.403 239.5V236.5ZM256.259 239.5C257.087 239.5 257.759 238.828 257.759 238C257.759 237.172 257.087 236.5 256.259 236.5V239.5ZM250.201 236.5C249.372 236.5 248.701 237.172 248.701 238C248.701 238.828 249.372 239.5 250.201 239.5V236.5ZM235.056 239.5C235.884 239.5 236.556 238.828 236.556 238C236.556 237.172 235.884 236.5 235.056 236.5V239.5ZM228.998 236.5C228.17 236.5 227.498 237.172 227.498 238C227.498 238.828 228.17 239.5 228.998 239.5V236.5ZM213.853 239.5C214.682 239.5 215.353 238.828 215.353 238C215.353 237.172 214.682 236.5 213.853 236.5V239.5ZM207.795 236.5C206.967 236.5 206.295 237.172 206.295 238C206.295 238.828 206.967 239.5 207.795 239.5V236.5ZM192.651 239.5C193.479 239.5 194.151 238.828 194.151 238C194.151 237.172 193.479 236.5 192.651 236.5V239.5ZM186.593 236.5C185.764 236.5 185.093 237.172 185.093 238C185.093 238.828 185.764 239.5 186.593 239.5V236.5ZM171.448 239.5C172.276 239.5 172.948 238.828 172.948 238C172.948 237.172 172.276 236.5 171.448 236.5V239.5ZM165.39 236.5C164.562 236.5 163.89 237.172 163.89 238C163.89 238.828 164.562 239.5 165.39 239.5V236.5ZM150.245 239.5C151.074 239.5 151.745 238.828 151.745 238C151.745 237.172 151.074 236.5 150.245 236.5V239.5ZM144.187 236.5C143.359 236.5 142.687 237.172 142.687 238C142.687 238.828 143.359 239.5 144.187 239.5V236.5ZM129.042 239.5C129.871 239.5 130.542 238.828 130.542 238C130.542 237.172 129.871 236.5 129.042 236.5V239.5ZM122.985 236.5C122.156 236.5 121.485 237.172 121.485 238C121.485 238.828 122.156 239.5 122.985 239.5V236.5ZM107.84 239.5C108.668 239.5 109.34 238.828 109.34 238C109.34 237.172 108.668 236.5 107.84 236.5V239.5ZM101.782 236.5C100.953 236.5 100.282 237.172 100.282 238C100.282 238.828 100.953 239.5 101.782 239.5V236.5ZM86.6371 239.5C87.4655 239.5 88.1371 238.828 88.1371 238C88.1371 237.172 87.4655 236.5 86.6371 236.5V239.5ZM80.5792 236.5C79.7507 236.5 79.0792 237.172 79.0792 238C79.0792 238.828 79.7507 239.5 80.5792 239.5V236.5ZM65.4344 239.5C66.2628 239.5 66.9344 238.828 66.9344 238C66.9344 237.172 66.2628 236.5 65.4344 236.5V239.5ZM59.3765 236.5C58.548 236.5 57.8765 237.172 57.8765 238C57.8765 238.828 58.548 239.5 59.3765 239.5V236.5ZM44.2317 239.5C45.0601 239.5 45.7317 238.828 45.7317 238C45.7317 237.172 45.0601 236.5 44.2317 236.5V239.5ZM38.1738 236.5C37.3453 236.5 36.6738 237.172 36.6738 238C36.6738 238.828 37.3453 239.5 38.1738 239.5V236.5ZM23.029 239.5C23.8574 239.5 24.529 238.828 24.529 238C24.529 237.172 23.8574 236.5 23.029 236.5V239.5ZM20 17.5H23.029V14.5H20V17.5ZM38.1737 17.5H44.2317V14.5H38.1737V17.5ZM59.3764 17.5H65.4344V14.5H59.3764V17.5ZM80.5791 17.5H86.6371V14.5H80.5791V17.5ZM101.782 17.5H107.84V14.5H101.782V17.5ZM122.985 17.5H129.042V14.5H122.985V17.5ZM144.187 17.5H150.245V14.5H144.187V17.5ZM165.39 17.5H171.448V14.5H165.39V17.5ZM186.593 17.5H192.651V14.5H186.593V17.5ZM207.795 17.5H213.853V14.5H207.795V17.5ZM228.998 17.5H235.056V14.5H228.998V17.5ZM250.201 17.5H256.259V14.5H250.201V17.5ZM271.404 17.5H277.461V14.5H271.404V17.5ZM292.606 17.5H298.664V14.5H292.606V17.5ZM313.809 17.5H319.867V14.5H313.809V17.5ZM335.012 17.5H341.07V14.5H335.012V17.5ZM356.214 17.5H362.272V14.5H356.214V17.5ZM377.417 17.5H383.475V14.5H377.417V17.5ZM398.62 17.5H404.678V14.5H398.62V17.5ZM419.822 17.5H425.88V14.5H419.822V17.5ZM441.025 17.5H447.083V14.5H441.025V17.5ZM462.228 17.5H468.286V14.5H462.228V17.5ZM483.43 17.5H489.488V14.5H483.43V17.5ZM504.633 17.5H510.691V14.5H504.633V17.5ZM525.836 17.5H531.894V14.5H525.836V17.5ZM547.039 17.5H553.097V14.5H547.039V17.5ZM568.241 17.5H574.299V14.5H568.241V17.5ZM589.444 17.5H595.502V14.5H589.444V17.5ZM610.647 17.5H616.705V14.5H610.647V17.5ZM631.849 17.5H637.907V14.5H631.849V17.5ZM653.052 17.5H659.11V14.5H653.052V17.5ZM674.255 17.5H680.313V14.5H674.255V17.5ZM695.458 17.5H701.515V14.5H695.458V17.5ZM716.66 17.5H722.718V14.5H716.66V17.5ZM737.863 17.5H743.921V14.5H737.863V17.5ZM759.066 17.5H765.124V14.5H759.066V17.5ZM780.268 17.5H786.326V14.5H780.268V17.5ZM801.471 17.5H804.5V14.5H801.471V17.5ZM804.5 17.5C805.57 17.5 806.625 17.512 807.664 17.5357L807.732 14.5364C806.67 14.5123 805.592 14.5 804.5 14.5V17.5ZM823.09 18.8627C825.193 19.1916 827.216 19.5758 829.164 20.0105L829.817 17.0826C827.805 16.6335 825.718 16.2374 823.554 15.8988L823.09 18.8627ZM843.82 24.7543C845.763 25.6106 847.6 26.5262 849.337 27.4921L850.795 24.8701C848.976 23.8589 847.056 22.9022 845.029 22.009L843.82 24.7543ZM861.654 36.533C863.176 37.9914 864.572 39.4902 865.852 41.0126L868.148 39.0821C866.801 37.4795 865.332 35.9018 863.729 34.3667L861.654 36.533ZM874.069 53.907C874.982 55.8493 875.755 57.7553 876.409 59.5903L879.235 58.583C878.551 56.6631 877.741 54.6669 876.784 52.6308L874.069 53.907ZM879.813 74.5401C879.907 75.4961 879.954 76.2465 879.977 76.7529C879.989 77.0061 879.995 77.1982 879.997 77.3243C879.999 77.3874 879.999 77.434 880 77.4635C880 77.4782 880 77.4887 880 77.4948C880 77.4978 880 77.4998 880 77.5007C880 77.5011 880 77.5013 880 77.5012C880 77.5011 880 77.501 880 77.5008C880 77.5007 880 77.5006 880 77.5004C880 77.5004 880 77.5003 880 77.5002C880 77.5001 880 77.5 881.5 77.5C883 77.5 883 77.4999 883 77.4997C883 77.4997 883 77.4995 883 77.4994C883 77.4992 883 77.499 883 77.4988C883 77.4983 883 77.4978 883 77.4972C883 77.4959 883 77.4944 883 77.4927C883 77.4891 883 77.4844 883 77.4787C883 77.4671 883 77.4512 883 77.431C882.999 77.3905 882.998 77.3327 882.997 77.2582C882.993 77.1093 882.987 76.8936 882.974 76.616C882.949 76.0608 882.898 75.2577 882.799 74.2456L879.813 74.5401ZM880 77.5V80.6714H883V77.5H880ZM880 96.5286V102.871H883V96.5286H880ZM880 118.729V125.071H883V118.729H880ZM880 140.929V147.271H883V140.929H880ZM880 163.129V169.471H883V163.129H880ZM880 185.329V188.5H883V185.329H880ZM881.5 188.5C880 188.5 880 188.5 880 188.5C880 188.5 880 188.5 880 188.499C880 188.499 880 188.499 880 188.499C880 188.499 880 188.498 880 188.498C880 188.498 880 188.498 880 188.498C880 188.498 880 188.5 880 188.502C880 188.507 880 188.516 880 188.528C879.999 188.554 879.999 188.595 879.997 188.652C879.994 188.765 879.987 188.939 879.974 189.168C879.947 189.628 879.892 190.312 879.781 191.181L882.757 191.56C882.877 190.619 882.938 189.867 882.969 189.344C882.984 189.083 882.992 188.879 882.996 188.736C882.998 188.665 882.999 188.609 882.999 188.57C883 188.55 883 188.534 883 188.523C883 188.517 883 188.512 883 188.508C883 188.506 883 188.505 883 188.503C883 188.503 883 188.502 883 188.501C883 188.501 883 188.501 883 188.501C883 188.501 883 188.5 883 188.5C883 188.5 883 188.5 881.5 188.5ZM875.762 204.605C874.999 206.206 874.1 207.859 873.039 209.53L875.571 211.138C876.701 209.359 877.659 207.6 878.47 205.895L875.762 204.605ZM863.831 220.137C862.459 221.319 860.97 222.473 859.353 223.587L861.055 226.058C862.761 224.882 864.335 223.662 865.789 222.411L863.831 220.137ZM846.833 230.168C845.13 230.838 843.339 231.468 841.454 232.051L842.34 234.917C844.295 234.312 846.157 233.658 847.931 232.96L846.833 230.168ZM827.513 235.168C825.68 235.441 823.783 235.676 821.818 235.871L822.114 238.856C824.126 238.657 826.073 238.415 827.955 238.135L827.513 235.168ZM807.464 236.532C806.499 236.53 805.521 236.52 804.529 236.5L804.471 239.5C805.479 239.519 806.475 239.53 807.458 239.532L807.464 236.532ZM804.5 236.5H801.471V239.5H804.5V236.5ZM786.326 236.5H780.268V239.5H786.326V236.5ZM765.124 236.5H759.066V239.5H765.124V236.5ZM743.921 236.5H737.863V239.5H743.921V236.5ZM722.718 236.5H716.66V239.5H722.718V236.5ZM701.515 236.5H695.458V239.5H701.515V236.5ZM680.313 236.5H674.255V239.5H680.313V236.5ZM659.11 236.5H653.052V239.5H659.11V236.5ZM637.907 236.5H631.849V239.5H637.907V236.5ZM616.705 236.5H610.647V239.5H616.705V236.5ZM595.502 236.5H589.444V239.5H595.502V236.5ZM574.299 236.5H568.241V239.5H574.299V236.5ZM553.096 236.5H547.039V239.5H553.096V236.5ZM531.894 236.5H525.836V239.5H531.894V236.5ZM510.691 236.5H504.633V239.5H510.691V236.5ZM489.488 236.5H483.43V239.5H489.488V236.5ZM468.286 236.5H462.228V239.5H468.286V236.5ZM447.083 236.5H441.025V239.5H447.083V236.5ZM425.88 236.5H419.822V239.5H425.88V236.5ZM404.678 236.5H398.62V239.5H404.678V236.5ZM383.475 236.5H377.417V239.5H383.475V236.5ZM362.272 236.5H356.214V239.5H362.272V236.5ZM341.07 236.5H335.012V239.5H341.07V236.5ZM319.867 236.5H313.809V239.5H319.867V236.5ZM298.664 236.5H292.606V239.5H298.664V236.5ZM277.461 236.5H271.403V239.5H277.461V236.5ZM256.259 236.5H250.201V239.5H256.259V236.5ZM235.056 236.5H228.998V239.5H235.056V236.5ZM213.853 236.5H207.795V239.5H213.853V236.5ZM192.651 236.5H186.593V239.5H192.651V236.5ZM171.448 236.5H165.39V239.5H171.448V236.5ZM150.245 236.5H144.187V239.5H150.245V236.5ZM129.042 236.5H122.985V239.5H129.042V236.5ZM107.84 236.5H101.782V239.5H107.84V236.5ZM86.6371 236.5H80.5792V239.5H86.6371V236.5ZM65.4344 236.5H59.3765V239.5H65.4344V236.5ZM44.2317 236.5H38.1738V239.5H44.2317V236.5ZM4 16C4 24.8366 11.1634 32 20 32C28.8366 32 36 24.8366 36 16C36 7.16344 28.8366 0 20 0C11.1634 0 4 7.16344 4 16ZM804.5 238L804.558 235.001L804.529 235H804.5V238ZM20 238L50 255.321V220.679L20 238ZM23.029 19C24.6858 19 26.029 17.6569 26.029 16C26.029 14.3431 24.6858 13 23.029 13V19ZM38.1737 13C36.5169 13 35.1737 14.3431 35.1737 16C35.1737 17.6569 36.5169 19 38.1737 19V13ZM44.2317 19C45.8885 19 47.2317 17.6569 47.2317 16C47.2317 14.3431 45.8885 13 44.2317 13V19ZM59.3764 13C57.7196 13 56.3764 14.3431 56.3764 16C56.3764 17.6569 57.7196 19 59.3764 19V13ZM65.4344 19C67.0912 19 68.4344 17.6569 68.4344 16C68.4344 14.3431 67.0912 13 65.4344 13V19ZM80.5791 13C78.9223 13 77.5791 14.3431 77.5791 16C77.5791 17.6569 78.9223 19 80.5791 19V13ZM86.6371 19C88.2939 19 89.6371 17.6569 89.6371 16C89.6371 14.3431 88.2939 13 86.6371 13V19ZM101.782 13C100.125 13 98.7819 14.3431 98.7819 16C98.7819 17.6569 100.125 19 101.782 19V13ZM107.84 19C109.497 19 110.84 17.6569 110.84 16C110.84 14.3431 109.497 13 107.84 13V19ZM122.985 13C121.328 13 119.985 14.3431 119.985 16C119.985 17.6569 121.328 19 122.985 19V13ZM129.042 19C130.699 19 132.042 17.6569 132.042 16C132.042 14.3431 130.699 13 129.042 13V19ZM144.187 13C142.53 13 141.187 14.3431 141.187 16C141.187 17.6569 142.53 19 144.187 19V13ZM150.245 19C151.902 19 153.245 17.6569 153.245 16C153.245 14.3431 151.902 13 150.245 13V19ZM165.39 13C163.733 13 162.39 14.3431 162.39 16C162.39 17.6569 163.733 19 165.39 19V13ZM171.448 19C173.105 19 174.448 17.6569 174.448 16C174.448 14.3431 173.105 13 171.448 13V19ZM186.593 13C184.936 13 183.593 14.3431 183.593 16C183.593 17.6569 184.936 19 186.593 19V13ZM192.651 19C194.307 19 195.651 17.6569 195.651 16C195.651 14.3431 194.307 13 192.651 13V19ZM207.795 13C206.139 13 204.795 14.3431 204.795 16C204.795 17.6569 206.139 19 207.795 19V13ZM213.853 19C215.51 19 216.853 17.6569 216.853 16C216.853 14.3431 215.51 13 213.853 13V19ZM228.998 13C227.341 13 225.998 14.3431 225.998 16C225.998 17.6569 227.341 19 228.998 19V13ZM235.056 19C236.713 19 238.056 17.6569 238.056 16C238.056 14.3431 236.713 13 235.056 13V19ZM250.201 13C248.544 13 247.201 14.3431 247.201 16C247.201 17.6569 248.544 19 250.201 19V13ZM256.259 19C257.916 19 259.259 17.6569 259.259 16C259.259 14.3431 257.916 13 256.259 13V19ZM271.404 13C269.747 13 268.404 14.3431 268.404 16C268.404 17.6569 269.747 19 271.404 19V13ZM277.461 19C279.118 19 280.461 17.6569 280.461 16C280.461 14.3431 279.118 13 277.461 13V19ZM292.606 13C290.949 13 289.606 14.3431 289.606 16C289.606 17.6569 290.949 19 292.606 19V13ZM298.664 19C300.321 19 301.664 17.6569 301.664 16C301.664 14.3431 300.321 13 298.664 13V19ZM313.809 13C312.152 13 310.809 14.3431 310.809 16C310.809 17.6569 312.152 19 313.809 19V13ZM319.867 19C321.524 19 322.867 17.6569 322.867 16C322.867 14.3431 321.524 13 319.867 13V19ZM335.012 13C333.355 13 332.012 14.3431 332.012 16C332.012 17.6569 333.355 19 335.012 19V13ZM341.07 19C342.726 19 344.07 17.6569 344.07 16C344.07 14.3431 342.726 13 341.07 13V19ZM356.214 13C354.557 13 353.214 14.3431 353.214 16C353.214 17.6569 354.557 19 356.214 19V13ZM362.272 19C363.929 19 365.272 17.6569 365.272 16C365.272 14.3431 363.929 13 362.272 13V19ZM377.417 13C375.76 13 374.417 14.3431 374.417 16C374.417 17.6569 375.76 19 377.417 19V13ZM383.475 19C385.132 19 386.475 17.6569 386.475 16C386.475 14.3431 385.132 13 383.475 13V19ZM398.62 13C396.963 13 395.62 14.3431 395.62 16C395.62 17.6569 396.963 19 398.62 19V13ZM404.678 19C406.334 19 407.678 17.6569 407.678 16C407.678 14.3431 406.334 13 404.678 13V19ZM419.822 13C418.166 13 416.822 14.3431 416.822 16C416.822 17.6569 418.166 19 419.822 19V13ZM425.88 19C427.537 19 428.88 17.6569 428.88 16C428.88 14.3431 427.537 13 425.88 13V19ZM441.025 13C439.368 13 438.025 14.3431 438.025 16C438.025 17.6569 439.368 19 441.025 19V13ZM447.083 19C448.74 19 450.083 17.6569 450.083 16C450.083 14.3431 448.74 13 447.083 13V19ZM462.228 13C460.571 13 459.228 14.3431 459.228 16C459.228 17.6569 460.571 19 462.228 19V13ZM468.286 19C469.943 19 471.286 17.6569 471.286 16C471.286 14.3431 469.943 13 468.286 13V19ZM483.43 13C481.774 13 480.43 14.3431 480.43 16C480.43 17.6569 481.774 19 483.43 19V13ZM489.488 19C491.145 19 492.488 17.6569 492.488 16C492.488 14.3431 491.145 13 489.488 13V19ZM504.633 13C502.976 13 501.633 14.3431 501.633 16C501.633 17.6569 502.976 19 504.633 19V13ZM510.691 19C512.348 19 513.691 17.6569 513.691 16C513.691 14.3431 512.348 13 510.691 13V19ZM525.836 13C524.179 13 522.836 14.3431 522.836 16C522.836 17.6569 524.179 19 525.836 19V13ZM531.894 19C533.551 19 534.894 17.6569 534.894 16C534.894 14.3431 533.551 13 531.894 13V19ZM547.039 13C545.382 13 544.039 14.3431 544.039 16C544.039 17.6569 545.382 19 547.039 19V13ZM553.097 19C554.753 19 556.097 17.6569 556.097 16C556.097 14.3431 554.753 13 553.097 13V19ZM568.241 13C566.584 13 565.241 14.3431 565.241 16C565.241 17.6569 566.584 19 568.241 19V13ZM574.299 19C575.956 19 577.299 17.6569 577.299 16C577.299 14.3431 575.956 13 574.299 13V19ZM589.444 13C587.787 13 586.444 14.3431 586.444 16C586.444 17.6569 587.787 19 589.444 19V13ZM595.502 19C597.159 19 598.502 17.6569 598.502 16C598.502 14.3431 597.159 13 595.502 13V19ZM610.647 13C608.99 13 607.647 14.3431 607.647 16C607.647 17.6569 608.99 19 610.647 19V13ZM616.705 19C618.362 19 619.705 17.6569 619.705 16C619.705 14.3431 618.362 13 616.705 13V19ZM631.849 13C630.193 13 628.849 14.3431 628.849 16C628.849 17.6569 630.193 19 631.849 19V13ZM637.907 19C639.564 19 640.907 17.6569 640.907 16C640.907 14.3431 639.564 13 637.907 13V19ZM653.052 13C651.395 13 650.052 14.3431 650.052 16C650.052 17.6569 651.395 19 653.052 19V13ZM659.11 19C660.767 19 662.11 17.6569 662.11 16C662.11 14.3431 660.767 13 659.11 13V19ZM674.255 13C672.598 13 671.255 14.3431 671.255 16C671.255 17.6569 672.598 19 674.255 19V13ZM680.313 19C681.97 19 683.313 17.6569 683.313 16C683.313 14.3431 681.97 13 680.313 13V19ZM695.458 13C693.801 13 692.458 14.3431 692.458 16C692.458 17.6569 693.801 19 695.458 19V13ZM701.515 19C703.172 19 704.515 17.6569 704.515 16C704.515 14.3431 703.172 13 701.515 13V19ZM716.66 13C715.003 13 713.66 14.3431 713.66 16C713.66 17.6569 715.003 19 716.66 19V13ZM722.718 19C724.375 19 725.718 17.6569 725.718 16C725.718 14.3431 724.375 13 722.718 13V19ZM737.863 13C736.206 13 734.863 14.3431 734.863 16C734.863 17.6569 736.206 19 737.863 19V13ZM743.921 19C745.578 19 746.921 17.6569 746.921 16C746.921 14.3431 745.578 13 743.921 13V19ZM759.066 13C757.409 13 756.066 14.3431 756.066 16C756.066 17.6569 757.409 19 759.066 19V13ZM765.124 19C766.78 19 768.124 17.6569 768.124 16C768.124 14.3431 766.78 13 765.124 13V19ZM780.268 13C778.611 13 777.268 14.3431 777.268 16C777.268 17.6569 778.611 19 780.268 19V13ZM786.326 19C787.983 19 789.326 17.6569 789.326 16C789.326 14.3431 787.983 13 786.326 13V19ZM801.471 13C799.814 13 798.471 14.3431 798.471 16C798.471 17.6569 799.814 19 801.471 19V13ZM807.63 19.0353C809.287 19.0729 810.66 17.7607 810.698 16.1043C810.735 14.4478 809.423 13.0745 807.767 13.0368L807.63 19.0353ZM823.786 14.4168C822.149 14.1607 820.614 15.2801 820.358 16.917C820.102 18.554 821.221 20.0886 822.858 20.3447L823.786 14.4168ZM828.837 21.4745C830.454 21.8354 832.058 20.8172 832.418 19.2001C832.779 17.583 831.761 15.9795 830.144 15.6186L828.837 21.4745ZM845.634 20.6364C844.118 19.9683 842.347 20.6558 841.679 22.172C841.011 23.6881 841.699 25.4589 843.215 26.127L845.634 20.6364ZM848.609 28.8031C850.057 29.6082 851.883 29.0869 852.688 27.6388C853.493 26.1907 852.972 24.3641 851.524 23.559L848.609 28.8031ZM864.767 33.2835C863.571 32.1373 861.672 32.1781 860.525 33.3745C859.379 34.5709 859.42 36.47 860.616 37.6162L864.767 33.2835ZM864.704 41.9779C865.77 43.2461 867.662 43.4099 868.931 42.3437C870.199 41.2775 870.363 39.3851 869.297 38.1169L864.704 41.9779ZM878.142 51.9927C877.437 50.4932 875.65 49.8491 874.151 50.5539C872.651 51.2587 872.007 53.0457 872.712 54.5451L878.142 51.9927ZM874.996 60.094C875.553 61.6547 877.269 62.4688 878.83 61.9125C880.39 61.3562 881.204 59.64 880.648 58.0793L874.996 60.094ZM884.291 74.0984C884.129 72.4496 882.66 71.2447 881.011 71.4073C879.363 71.5699 878.158 73.0384 878.32 74.6873L884.291 74.0984ZM878.5 80.6714C878.5 82.3283 879.843 83.6714 881.5 83.6714C883.157 83.6714 884.5 82.3283 884.5 80.6714H878.5ZM884.5 96.5286C884.5 94.8717 883.157 93.5286 881.5 93.5286C879.843 93.5286 878.5 94.8717 878.5 96.5286H884.5ZM878.5 102.871C878.5 104.528 879.843 105.871 881.5 105.871C883.157 105.871 884.5 104.528 884.5 102.871H878.5ZM884.5 118.729C884.5 117.072 883.157 115.729 881.5 115.729C879.843 115.729 878.5 117.072 878.5 118.729H884.5ZM878.5 125.071C878.5 126.728 879.843 128.071 881.5 128.071C883.157 128.071 884.5 126.728 884.5 125.071H878.5ZM884.5 140.929C884.5 139.272 883.157 137.929 881.5 137.929C879.843 137.929 878.5 139.272 878.5 140.929H884.5ZM878.5 147.271C878.5 148.928 879.843 150.271 881.5 150.271C883.157 150.271 884.5 148.928 884.5 147.271H878.5ZM884.5 163.129C884.5 161.472 883.157 160.129 881.5 160.129C879.843 160.129 878.5 161.472 878.5 163.129H884.5ZM878.5 169.471C878.5 171.128 879.843 172.471 881.5 172.471C883.157 172.471 884.5 171.128 884.5 169.471H878.5ZM884.5 185.329C884.5 183.672 883.157 182.329 881.5 182.329C879.843 182.329 878.5 183.672 878.5 185.329H884.5ZM878.293 190.991C878.084 192.635 879.246 194.137 880.89 194.346C882.533 194.556 884.036 193.393 884.245 191.75L878.293 190.991ZM879.825 206.541C880.537 205.045 879.902 203.254 878.406 202.542C876.911 201.829 875.12 202.464 874.408 203.96L879.825 206.541ZM871.772 208.726C870.884 210.125 871.298 211.979 872.697 212.867C874.096 213.755 875.95 213.341 876.838 211.942L871.772 208.726ZM866.767 223.547C868.023 222.466 868.164 220.572 867.083 219.317C866.002 218.061 864.108 217.92 862.852 219.001L866.767 223.547ZM858.502 222.352C857.137 223.292 856.793 225.16 857.733 226.525C858.673 227.889 860.541 228.233 861.906 227.293L858.502 222.352ZM848.48 234.356C850.022 233.749 850.78 232.008 850.174 230.466C849.567 228.924 847.826 228.166 846.284 228.773L848.48 234.356ZM841.011 230.617C839.428 231.107 838.541 232.787 839.031 234.37C839.52 235.953 841.2 236.839 842.783 236.35L841.011 230.617ZM828.176 239.618C829.815 239.374 830.946 237.848 830.701 236.209C830.457 234.57 828.931 233.44 827.292 233.684L828.176 239.618ZM821.671 234.378C820.022 234.542 818.818 236.011 818.981 237.659C819.145 239.308 820.614 240.512 822.262 240.349L821.671 234.378ZM807.455 241.032C809.112 241.035 810.457 239.695 810.461 238.038C810.464 236.381 809.124 235.036 807.467 235.032L807.455 241.032ZM801.471 235C799.814 235 798.471 236.343 798.471 238C798.471 239.657 799.814 241 801.471 241V235ZM786.326 241C787.983 241 789.326 239.657 789.326 238C789.326 236.343 787.983 235 786.326 235V241ZM780.268 235C778.611 235 777.268 236.343 777.268 238C777.268 239.657 778.611 241 780.268 241V235ZM765.124 241C766.78 241 768.124 239.657 768.124 238C768.124 236.343 766.78 235 765.124 235V241ZM759.066 235C757.409 235 756.066 236.343 756.066 238C756.066 239.657 757.409 241 759.066 241V235ZM743.921 241C745.578 241 746.921 239.657 746.921 238C746.921 236.343 745.578 235 743.921 235V241ZM737.863 235C736.206 235 734.863 236.343 734.863 238C734.863 239.657 736.206 241 737.863 241V235ZM722.718 241C724.375 241 725.718 239.657 725.718 238C725.718 236.343 724.375 235 722.718 235V241ZM716.66 235C715.003 235 713.66 236.343 713.66 238C713.66 239.657 715.003 241 716.66 241V235ZM701.515 241C703.172 241 704.515 239.657 704.515 238C704.515 236.343 703.172 235 701.515 235V241ZM695.458 235C693.801 235 692.458 236.343 692.458 238C692.458 239.657 693.801 241 695.458 241V235ZM680.313 241C681.97 241 683.313 239.657 683.313 238C683.313 236.343 681.97 235 680.313 235V241ZM674.255 235C672.598 235 671.255 236.343 671.255 238C671.255 239.657 672.598 241 674.255 241V235ZM659.11 241C660.767 241 662.11 239.657 662.11 238C662.11 236.343 660.767 235 659.11 235V241ZM653.052 235C651.395 235 650.052 236.343 650.052 238C650.052 239.657 651.395 241 653.052 241V235ZM637.907 241C639.564 241 640.907 239.657 640.907 238C640.907 236.343 639.564 235 637.907 235V241ZM631.849 235C630.193 235 628.849 236.343 628.849 238C628.849 239.657 630.193 241 631.849 241V235ZM616.705 241C618.361 241 619.705 239.657 619.705 238C619.705 236.343 618.361 235 616.705 235V241ZM610.647 235C608.99 235 607.647 236.343 607.647 238C607.647 239.657 608.99 241 610.647 241V235ZM595.502 241C597.159 241 598.502 239.657 598.502 238C598.502 236.343 597.159 235 595.502 235V241ZM589.444 235C587.787 235 586.444 236.343 586.444 238C586.444 239.657 587.787 241 589.444 241V235ZM574.299 241C575.956 241 577.299 239.657 577.299 238C577.299 236.343 575.956 235 574.299 235V241ZM568.241 235C566.584 235 565.241 236.343 565.241 238C565.241 239.657 566.584 241 568.241 241V235ZM553.096 241C554.753 241 556.096 239.657 556.096 238C556.096 236.343 554.753 235 553.096 235V241ZM547.039 235C545.382 235 544.039 236.343 544.039 238C544.039 239.657 545.382 241 547.039 241V235ZM531.894 241C533.551 241 534.894 239.657 534.894 238C534.894 236.343 533.551 235 531.894 235V241ZM525.836 235C524.179 235 522.836 236.343 522.836 238C522.836 239.657 524.179 241 525.836 241V235ZM510.691 241C512.348 241 513.691 239.657 513.691 238C513.691 236.343 512.348 235 510.691 235V241ZM504.633 235C502.976 235 501.633 236.343 501.633 238C501.633 239.657 502.976 241 504.633 241V235ZM489.488 241C491.145 241 492.488 239.657 492.488 238C492.488 236.343 491.145 235 489.488 235V241ZM483.43 235C481.774 235 480.43 236.343 480.43 238C480.43 239.657 481.774 241 483.43 241V235ZM468.286 241C469.943 241 471.286 239.657 471.286 238C471.286 236.343 469.943 235 468.286 235V241ZM462.228 235C460.571 235 459.228 236.343 459.228 238C459.228 239.657 460.571 241 462.228 241V235ZM447.083 241C448.74 241 450.083 239.657 450.083 238C450.083 236.343 448.74 235 447.083 235V241ZM441.025 235C439.368 235 438.025 236.343 438.025 238C438.025 239.657 439.368 241 441.025 241V235ZM425.88 241C427.537 241 428.88 239.657 428.88 238C428.88 236.343 427.537 235 425.88 235V241ZM419.822 235C418.166 235 416.822 236.343 416.822 238C416.822 239.657 418.166 241 419.822 241V235ZM404.678 241C406.334 241 407.678 239.657 407.678 238C407.678 236.343 406.334 235 404.678 235V241ZM398.62 235C396.963 235 395.62 236.343 395.62 238C395.62 239.657 396.963 241 398.62 241V235ZM383.475 241C385.132 241 386.475 239.657 386.475 238C386.475 236.343 385.132 235 383.475 235V241ZM377.417 235C375.76 235 374.417 236.343 374.417 238C374.417 239.657 375.76 241 377.417 241V235ZM362.272 241C363.929 241 365.272 239.657 365.272 238C365.272 236.343 363.929 235 362.272 235V241ZM356.214 235C354.557 235 353.214 236.343 353.214 238C353.214 239.657 354.557 241 356.214 241V235ZM341.07 241C342.726 241 344.07 239.657 344.07 238C344.07 236.343 342.726 235 341.07 235V241ZM335.012 235C333.355 235 332.012 236.343 332.012 238C332.012 239.657 333.355 241 335.012 241V235ZM319.867 241C321.524 241 322.867 239.657 322.867 238C322.867 236.343 321.524 235 319.867 235V241ZM313.809 235C312.152 235 310.809 236.343 310.809 238C310.809 239.657 312.152 241 313.809 241V235ZM298.664 241C300.321 241 301.664 239.657 301.664 238C301.664 236.343 300.321 235 298.664 235V241ZM292.606 235C290.949 235 289.606 236.343 289.606 238C289.606 239.657 290.949 241 292.606 241V235ZM277.461 241C279.118 241 280.461 239.657 280.461 238C280.461 236.343 279.118 235 277.461 235V241ZM271.403 235C269.747 235 268.403 236.343 268.403 238C268.403 239.657 269.747 241 271.403 241V235ZM256.259 241C257.916 241 259.259 239.657 259.259 238C259.259 236.343 257.916 235 256.259 235V241ZM250.201 235C248.544 235 247.201 236.343 247.201 238C247.201 239.657 248.544 241 250.201 241V235ZM235.056 241C236.713 241 238.056 239.657 238.056 238C238.056 236.343 236.713 235 235.056 235V241ZM228.998 235C227.341 235 225.998 236.343 225.998 238C225.998 239.657 227.341 241 228.998 241V235ZM213.853 241C215.51 241 216.853 239.657 216.853 238C216.853 236.343 215.51 235 213.853 235V241ZM207.795 235C206.138 235 204.795 236.343 204.795 238C204.795 239.657 206.138 241 207.795 241V235ZM192.651 241C194.307 241 195.651 239.657 195.651 238C195.651 236.343 194.307 235 192.651 235V241ZM186.593 235C184.936 235 183.593 236.343 183.593 238C183.593 239.657 184.936 241 186.593 241V235ZM171.448 241C173.105 241 174.448 239.657 174.448 238C174.448 236.343 173.105 235 171.448 235V241ZM165.39 235C163.733 235 162.39 236.343 162.39 238C162.39 239.657 163.733 241 165.39 241V235ZM150.245 241C151.902 241 153.245 239.657 153.245 238C153.245 236.343 151.902 235 150.245 235V241ZM144.187 235C142.53 235 141.187 236.343 141.187 238C141.187 239.657 142.53 241 144.187 241V235ZM129.042 241C130.699 241 132.042 239.657 132.042 238C132.042 236.343 130.699 235 129.042 235V241ZM122.985 235C121.328 235 119.985 236.343 119.985 238C119.985 239.657 121.328 241 122.985 241V235ZM107.84 241C109.497 241 110.84 239.657 110.84 238C110.84 236.343 109.497 235 107.84 235V241ZM101.782 235C100.125 235 98.7818 236.343 98.7818 238C98.7818 239.657 100.125 241 101.782 241V235ZM86.6371 241C88.2939 241 89.6371 239.657 89.6371 238C89.6371 236.343 88.2939 235 86.6371 235V241ZM80.5792 235C78.9223 235 77.5792 236.343 77.5792 238C77.5792 239.657 78.9223 241 80.5792 241V235ZM65.4344 241C67.0912 241 68.4344 239.657 68.4344 238C68.4344 236.343 67.0912 235 65.4344 235V241ZM59.3765 235C57.7196 235 56.3765 236.343 56.3765 238C56.3765 239.657 57.7196 241 59.3765 241V235ZM44.2317 241C45.8886 241 47.2317 239.657 47.2317 238C47.2317 236.343 45.8886 235 44.2317 235V241ZM38.1738 235C36.5169 235 35.1738 236.343 35.1738 238C35.1738 239.657 36.5169 241 38.1738 241V235ZM23.029 241C24.6859 241 26.029 239.657 26.029 238C26.029 236.343 24.6859 235 23.029 235V241ZM20 19H23.029V13H20V19ZM38.1737 19H44.2317V13H38.1737V19ZM59.3764 19H65.4344V13H59.3764V19ZM80.5791 19H86.6371V13H80.5791V19ZM101.782 19H107.84V13H101.782V19ZM122.985 19H129.042V13H122.985V19ZM144.187 19H150.245V13H144.187V19ZM165.39 19H171.448V13H165.39V19ZM186.593 19H192.651V13H186.593V19ZM207.795 19H213.853V13H207.795V19ZM228.998 19H235.056V13H228.998V19ZM250.201 19H256.259V13H250.201V19ZM271.404 19H277.461V13H271.404V19ZM292.606 19H298.664V13H292.606V19ZM313.809 19H319.867V13H313.809V19ZM335.012 19H341.07V13H335.012V19ZM356.214 19H362.272V13H356.214V19ZM377.417 19H383.475V13H377.417V19ZM398.62 19H404.678V13H398.62V19ZM419.822 19H425.88V13H419.822V19ZM441.025 19H447.083V13H441.025V19ZM462.228 19H468.286V13H462.228V19ZM483.43 19H489.488V13H483.43V19ZM504.633 19H510.691V13H504.633V19ZM525.836 19H531.894V13H525.836V19ZM547.039 19H553.097V13H547.039V19ZM568.241 19H574.299V13H568.241V19ZM589.444 19H595.502V13H589.444V19ZM610.647 19H616.705V13H610.647V19ZM631.849 19H637.907V13H631.849V19ZM653.052 19H659.11V13H653.052V19ZM674.255 19H680.313V13H674.255V19ZM695.458 19H701.515V13H695.458V19ZM716.66 19H722.718V13H716.66V19ZM737.863 19H743.921V13H737.863V19ZM759.066 19H765.124V13H759.066V19ZM780.268 19H786.326V13H780.268V19ZM801.471 19H804.5V13H801.471V19ZM804.5 19C805.559 19 806.602 19.0119 807.63 19.0353L807.767 13.0368C806.692 13.0124 805.604 13 804.5 13V19ZM822.858 20.3447C824.93 20.6687 826.922 21.047 828.837 21.4745L830.144 15.6186C828.1 15.1623 825.981 14.7603 823.786 14.4168L822.858 20.3447ZM843.215 26.127C845.116 26.9648 846.912 27.8599 848.609 28.8031L851.524 23.559C849.664 22.5252 847.703 21.548 845.634 20.6364L843.215 26.127ZM860.616 37.6162C862.099 39.0362 863.458 40.4955 864.704 41.9779L869.297 38.1169C867.916 36.4742 866.409 34.857 864.767 33.2835L860.616 37.6162ZM872.712 54.5451C873.603 56.4405 874.357 58.3014 874.996 60.094L880.648 58.0793C879.948 56.1169 879.121 54.0757 878.142 51.9927L872.712 54.5451ZM878.32 74.6873C878.412 75.6152 878.457 76.3394 878.479 76.8214C878.49 77.0624 878.495 77.2427 878.498 77.3574C878.499 77.4148 878.5 77.4557 878.5 77.4797C878.5 77.4917 878.5 77.4994 878.5 77.5028C878.5 77.5045 878.5 77.5052 878.5 77.5047C878.5 77.5045 878.5 77.504 878.5 77.5032C878.5 77.5028 878.5 77.5023 878.5 77.5018C878.5 77.5015 878.5 77.5012 878.5 77.5009C878.5 77.5008 878.5 77.5006 878.5 77.5005C878.5 77.5002 878.5 77.5 881.5 77.5C884.5 77.5 884.5 77.4997 884.5 77.4995C884.5 77.4994 884.5 77.4991 884.5 77.4989C884.5 77.4986 884.5 77.4982 884.5 77.4978C884.5 77.497 884.5 77.4961 884.5 77.4952C884.5 77.4933 884.5 77.4911 884.5 77.4887C884.5 77.4838 884.5 77.4777 884.5 77.4706C884.5 77.4564 884.5 77.4377 884.499 77.4147C884.499 77.3687 884.498 77.3053 884.496 77.2251C884.493 77.0648 884.486 76.8373 884.473 76.5475C884.446 75.968 884.394 75.1385 884.291 74.0984L878.32 74.6873ZM878.5 77.5V80.6714H884.5V77.5H878.5ZM878.5 96.5286V102.871H884.5V96.5286H878.5ZM878.5 118.729V125.071H884.5V118.729H878.5ZM878.5 140.929V147.271H884.5V140.929H878.5ZM878.5 163.129V169.471H884.5V163.129H878.5ZM878.5 185.329V188.5H884.5V185.329H878.5ZM881.5 188.5C878.5 188.5 878.5 188.5 878.5 188.499C878.5 188.499 878.5 188.499 878.5 188.499C878.5 188.498 878.5 188.498 878.5 188.498C878.5 188.497 878.5 188.496 878.5 188.496C878.5 188.494 878.5 188.494 878.5 188.493C878.5 188.491 878.5 188.491 878.5 188.492C878.5 188.493 878.5 188.498 878.5 188.508C878.5 188.526 878.499 188.56 878.498 188.609C878.495 188.708 878.489 188.866 878.476 189.081C878.451 189.509 878.399 190.159 878.293 190.991L884.245 191.75C884.37 190.772 884.433 189.986 884.466 189.432C884.482 189.155 884.491 188.936 884.495 188.779C884.497 188.7 884.499 188.637 884.499 188.591C884.5 188.567 884.5 188.548 884.5 188.533C884.5 188.525 884.5 188.519 884.5 188.513C884.5 188.511 884.5 188.508 884.5 188.506C884.5 188.505 884.5 188.504 884.5 188.503C884.5 188.502 884.5 188.502 884.5 188.501C884.5 188.501 884.5 188.501 884.5 188.501C884.5 188.5 884.5 188.5 881.5 188.5ZM874.408 203.96C873.67 205.509 872.799 207.109 871.772 208.726L876.838 211.942C878.002 210.109 878.988 208.296 879.825 206.541L874.408 203.96ZM862.852 219.001C861.521 220.147 860.074 221.269 858.502 222.352L861.906 227.293C863.656 226.087 865.273 224.834 866.767 223.547L862.852 219.001ZM846.284 228.773C844.617 229.428 842.861 230.045 841.011 230.617L842.783 236.35C844.773 235.734 846.671 235.068 848.48 234.356L846.284 228.773ZM827.292 233.684C825.484 233.953 823.611 234.186 821.671 234.378L822.262 240.349C824.298 240.147 826.269 239.903 828.176 239.618L827.292 233.684ZM807.467 235.032C806.511 235.03 805.541 235.02 804.558 235.001L804.442 240.999C805.459 241.019 806.463 241.03 807.455 241.032L807.467 235.032ZM804.5 235H801.471V241H804.5V235ZM786.326 235H780.268V241H786.326V235ZM765.124 235H759.066V241H765.124V235ZM743.921 235H737.863V241H743.921V235ZM722.718 235H716.66V241H722.718V235ZM701.515 235H695.458V241H701.515V235ZM680.313 235H674.255V241H680.313V235ZM659.11 235H653.052V241H659.11V235ZM637.907 235H631.849V241H637.907V235ZM616.705 235H610.647V241H616.705V235ZM595.502 235H589.444V241H595.502V235ZM574.299 235H568.241V241H574.299V235ZM553.096 235H547.039V241H553.096V235ZM531.894 235H525.836V241H531.894V235ZM510.691 235H504.633V241H510.691V235ZM489.488 235H483.43V241H489.488V235ZM468.286 235H462.228V241H468.286V235ZM447.083 235H441.025V241H447.083V235ZM425.88 235H419.822V241H425.88V235ZM404.678 235H398.62V241H404.678V235ZM383.475 235H377.417V241H383.475V235ZM362.272 235H356.214V241H362.272V235ZM341.07 235H335.012V241H341.07V235ZM319.867 235H313.809V241H319.867V235ZM298.664 235H292.606V241H298.664V235ZM277.461 235H271.403V241H277.461V235ZM256.259 235H250.201V241H256.259V235ZM235.056 235H228.998V241H235.056V235ZM213.853 235H207.795V241H213.853V235ZM192.651 235H186.593V241H192.651V235ZM171.448 235H165.39V241H171.448V235ZM150.245 235H144.187V241H150.245V235ZM129.042 235H122.985V241H129.042V235ZM107.84 235H101.782V241H107.84V235ZM86.6371 235H80.5792V241H86.6371V235ZM65.4344 235H59.3765V241H65.4344V235ZM44.2317 235H38.1738V241H44.2317V235Z" fill="#FF0000"/>
</g>
<defs>
<filter id="filter0_d_0_1" x="0" y="0" width="888.5" height="263.321" filterUnits="userSpaceOnUse" color-interpolation-filters="sRGB">
<feFlood flood-opacity="0" result="BackgroundImageFix"/>
<feColorMatrix in="SourceAlpha" type="matrix" values="0 0 0 0 0 0 0 0 0 0 0 0 0 0 0 0 0 0 127 0" result="hardAlpha"/>
<feOffset dy="4"/>
<feGaussianBlur stdDeviation="2"/>
<feComposite in2="hardAlpha" operator="out"/>
<feColorMatrix type="matrix" values="0 0 0 0 0 0 0 0 0 0 0 0 0 0 0 0 0 0 0.25 0"/>
<feBlend mode="normal" in2="BackgroundImageFix" result="effect1_dropShadow_0_1"/>
<feBlend mode="normal" in="SourceGraphic" in2="effect1_dropShadow_0_1" result="shape"/>
</filter>
</defs>
</svg>
