<?xml version="1.0" encoding="UTF-8" standalone="no" ?>
<!DOCTYPE svg PUBLIC "-//W3C//DTD SVG 1.1//EN" "http://www.w3.org/Graphics/SVG/1.1/DTD/svg11.dtd">
<svg xmlns="http://www.w3.org/2000/svg" xmlns:xlink="http://www.w3.org/1999/xlink" version="1.1" width="1500" height="500" viewBox="0 0 1500 500" xml:space="preserve">
<desc>Created with Fabric.js 4.6.0</desc>
<defs>
</defs>
<g transform="matrix(1 0 0 1 733.8 209.46)" id="HxTcRmy--lwsao9JFkJJk"  >
<path style="stroke: rgb(0,0,0); stroke-width: 1; stroke-dasharray: none; stroke-linecap: butt; stroke-dashoffset: 0; stroke-linejoin: miter; stroke-miterlimit: 4; fill: rgb(255,255,255); fill-opacity: 0; fill-rule: nonzero; opacity: 1;" vector-effect="non-scaling-stroke"  transform=" translate(0, 0)" d="M -668.9642 -146.517 C -348.28663 -154.40251 514.73907 -150.02167 514.73907 -150.02167 L 683.8395399999999 -86.06139 C 683.8395399999999 -86.06139 712.7530899999999 -7.206249999999997 711.8769199999999 -2.825410000000005 C 711.0007499999999 1.555429999999995 686.46804 92.67693 689.09655 97.93393999999999 C 691.72505 103.19094999999999 693.47739 182.92226 693.47739 182.92226 C 693.47739 182.92226 619.87926 229.35917999999998 611.11758 231.11151 C 602.3559 232.86385 441.14094 226.73067 404.34187999999995 231.11151 C 367.5428099999999 235.49235000000002 242.25075999999996 247.75871 196.69000999999994 250.38721 C 151.12925999999993 253.01571 -213.35672000000008 241.62553 -227.37541000000007 241.62553 C -241.39410000000007 241.62553 -326.3824200000001 213.58814999999998 -388.59036000000003 209.20731 C -450.79830000000004 204.82647 -508.62541000000004 202.19796 -526.14877 209.20731 C -543.67213 216.21666000000002 -711.89643 221.47367 -711.89643 221.47367 L 188.80449999999996 -250.78099999999998" stroke-linecap="round" />
</g>
</svg>