<svg width="2329" height="957" viewBox="0 0 2329 957" fill="none" xmlns="http://www.w3.org/2000/svg">

<path fill-rule="evenodd" clip-rule="evenodd" d="M344.795 371.391H383.095C383.095 371.391 446.906 371.391 446.906 302.733C446.906 234.088 383.095 238.126 383.095 238.126H344.795V371.391ZM344.795 702.542H387.336C387.336 702.542 455.414 702.542 455.414 621.77C455.414 545.049 387.336 545.049 387.336 545.049H344.795V702.542ZM472.431 904.478H64V36.2022H489.46C489.46 36.2022 766.001 44.2781 766.001 230.05C766.001 391.593 659.636 444.087 659.636 444.087C659.636 444.087 800.047 488.505 800.047 641.985C800.034 920.605 472.431 904.478 472.431 904.478ZM1974.29 460.239C1974.29 399.669 1970.04 238.126 1863.67 238.126C1757.31 238.126 1753.05 399.657 1753.05 460.239C1753.05 516.783 1757.31 678.314 1863.67 678.314C1970.04 678.314 1974.29 516.783 1974.29 460.239ZM2161.5 734.858H2246.59V896.389H1833.89C1833.89 896.389 1455.24 932.719 1455.24 464.265C1455.24 181.569 1625.44 16 1859.43 16C2093.44 16 2263.62 181.569 2263.62 468.315C2263.61 637.934 2161.5 734.858 2161.5 734.858V734.858Z" fill="#BC445E"/>
<path fill-rule="evenodd" clip-rule="evenodd" d="M1161.71 700.523C1145.53 680.04 1133.4 659.569 1117.22 643.18C1105.08 626.816 1088.9 610.44 1076.77 598.157C1064.63 602.251 1028.22 622.734 1028.22 667.757C1028.22 716.912 1056.53 729.169 1092.95 729.169C1121.26 729.169 1153.62 704.617 1161.71 700.523V700.523ZM1125.31 377.049C1125.31 377.049 1088.9 348.39 1088.9 311.531C1088.9 286.953 1101.03 270.589 1125.31 270.589C1149.57 270.589 1169.79 282.872 1169.79 311.531C1169.79 352.472 1125.31 377.049 1125.31 377.049ZM1279.02 888.878L1254.76 852.018C1202.16 884.784 1141.49 905.267 1072.71 905.267C898.774 905.267 830 802.901 830 700.535C830 549.015 935.177 495.804 963.49 483.509C935.177 454.863 894.717 397.532 894.717 315.637C894.717 184.613 1003.94 115 1117.2 115C1230.48 115 1347.79 196.895 1347.79 315.637C1347.79 438.474 1230.47 503.992 1230.47 503.992C1242.6 516.275 1270.91 544.946 1299.23 581.781L1339.69 544.946L1456.99 675.958L1404.41 725.113C1444.84 802.901 1497.45 888.89 1497.45 888.89H1279.02V888.878Z" fill="#BC445E"/>
</svg>
