<svg xmlns="http://www.w3.org/2000/svg" xmlns:xlink="http://www.w3.org/1999/xlink" xmlns:serif="http://www.serif.com/" width="100%" height="100%" viewBox="0 0 177 58" version="1.1" xml:space="preserve" style="fill-rule:evenodd;clip-rule:evenodd;stroke-linejoin:round;stroke-miterlimit:1.41421;">
    <g transform="matrix(1,0,0,1,0,-66)">
        <path d="M61.236,95.414C61.653,96.074 62.263,96.59 62.982,96.891C62.647,98.582 62.193,100.247 61.624,101.874C61.154,103.288 60.563,104.659 59.857,105.971C58.925,107.435 53.364,107.993 54.513,104.579C55.235,102.426 56.811,96.701 57.33,94.731C57.848,92.761 58.485,89.36 55.498,89.833C52.511,90.306 50.141,91.08 48.486,92.348C46.832,93.615 46.136,94.764 47.167,95.552C48.197,96.34 48.709,96.832 48.709,96.832C48.709,97.909 48.184,99.274 46.937,102.787C45.689,106.299 44.803,110.147 47.213,111.781C49.622,113.416 54.434,112.983 56.266,112.215C58.098,111.447 59.155,110.954 59.155,110.954C59.155,110.954 58.61,112.589 59.857,113.009C61.105,113.429 65.11,113.386 67.473,111.56C69.882,109.916 70.533,108.315 70.579,107.704C70.69,106.332 68.937,106.523 68.734,105.544C68.53,104.566 71.662,94.796 72.286,93.136C72.909,91.475 72.502,89.813 70.553,90.004C69.207,89.879 66.008,90.325 63.751,91.836C61.584,93.211 60.448,94.206 61.236,95.414Z" style="fill:red;fill-rule:nonzero;"/>
        <path d="M77.256,112.687C82.554,113.64 84.668,111.545 84.668,111.545C84.668,111.545 85.791,113.212 87.334,113.219C88.877,113.226 94.024,113.442 96.197,110.324C98.37,107.206 99.56,105.61 98.561,105.315C97.61,105.105 97.084,105.209 95.861,105.557C94.828,104.728 95.268,103.917 96.136,100.298C97.149,97.35 102.004,81.935 102.66,80.72C104.692,76.832 103.391,75.197 101.336,75.184C99.281,75.171 96.787,75.184 94.207,76.72C91.627,78.257 90.484,80.19 91.613,80.978C92.585,81.634 93.977,81.083 93.773,82.061C93.57,83.039 90.718,91.507 90.718,91.507C90.718,91.507 85.947,89.11 81.824,90.554C77.323,92.091 73.792,95.848 72.614,100.456C71.15,105.525 73.343,111.992 77.256,112.687ZM83.381,97.132C85.757,94.795 88.945,95.494 88.63,97.608C88.155,100.172 87.456,102.689 86.542,105.132C85.813,106.885 81.453,107.711 80.94,104.783C80.514,101.892 81.472,99.137 83.381,97.132Z" style="fill:red;fill-rule:nonzero;"/>
        <path d="M100.884,95.229C100.674,96.791 102.938,96.912 102.853,97.306C102.554,98.824 102.171,100.214 101.705,101.689C101.067,103.441 98.55,108.86 100.519,110.62C102.489,112.379 104.424,113.911 108.645,112.952C111.025,112.451 113.07,111.687 115.28,110.674C116.474,111.346 117.123,112.189 120.312,112.552C122.804,112.733 128.008,113.036 131.888,110.003C134.241,108.165 136.685,104.324 137.218,98.191C137.909,90.185 132.757,89.234 130.084,91.019C128.628,91.992 127.954,94.131 129.191,95.617C129.905,96.5 130.775,97.12 131.903,97.247C131.902,99.339 132.149,100.888 131.296,102.746C130.331,104.848 127.931,107.082 125.077,107.075C122.608,107.075 121.743,106.05 122.505,101.559C123.266,97.068 123.671,94.174 123.928,92.893C124.453,90.267 123.894,89.298 121.235,89.514C116.437,89.629 112.856,93.111 112.85,95.185C112.843,96.662 114.898,97.154 115.416,97.049C115.392,98.628 115.037,99.562 114.827,101.026C114.4,102.816 113.828,106.815 112.201,107.087C110.529,107.11 108.587,107.251 108.83,104.893C109.073,102.536 110.504,97.93 111.647,94.897C112.843,91.755 112.846,89.699 109.248,89.856C105.651,90.014 101.133,93.377 100.884,95.229Z" style="fill:red;fill-rule:nonzero;"/>
        <path d="M139.154,113.402C142.412,113.204 148.769,111.074 148.782,108.614C148.782,106.942 146.283,107.292 146.39,106.439C146.497,105.586 149.142,94.768 149.682,93.055C150.528,90.41 149.069,90.099 145.724,90.582C142.379,91.065 138.821,92.321 138.707,94.801C138.608,97.016 140.587,96.586 140.367,97.366C140.147,98.147 137.701,107.107 137.182,108.879C136.662,110.651 136.123,113.587 139.154,113.402Z" style="fill:red;fill-rule:nonzero;"/>
        <path d="M145.963,88.602C148.904,88.816 151.115,86.932 151.551,83.651C151.959,80.565 149.681,79.168 147.055,79.155C144.387,79.186 142.187,81.251 141.996,83.905C141.882,86.611 143.242,88.408 145.963,88.602Z" style="fill:red;fill-rule:nonzero;"/>
        <path d="M169.668,91.832C169.668,91.832 165.487,89.501 162.072,90.157C158.549,90.814 152.08,93.477 150.497,101.973C149.533,107.149 150.398,110.337 153.201,112.201C154.923,113.346 157.509,114.212 160.898,113.823C160.898,113.823 161.116,116.065 154.826,116.039L135.346,115.98L133.764,123.573L152.348,123.638C158.73,123.638 165.108,123.885 167.806,119.492C169.966,115.974 173.524,104.763 174.89,99.491C175.462,97.281 176.174,95.372 176.434,93.881C177.218,89.399 172.042,89.484 169.668,91.832ZM166.487,98.918C165.85,101.453 165.014,103.934 163.986,106.337C162.793,108.66 159.205,107.448 159.106,104.71C158.974,102.45 159.683,99.621 161.3,97.777C164.598,94.38 167.043,96.94 166.487,98.918Z" style="fill:red;fill-rule:nonzero;"/>
        <path d="M80.693,115.765L48.6,115.717C45.815,115.613 43.008,114.754 40.688,113.209C39.625,112.553 37.786,111.074 35.712,109.617C39.905,103.837 45.823,87.743 48.136,81.193C49.823,76.414 53.319,72.854 56.956,72.578C58.469,72.463 59.575,72.523 60.49,73C62.593,74.098 63.142,76.375 61.902,77.895C59.797,75.83 52.884,76.296 52.766,81.292C52.648,86.288 57.564,86.957 59.632,86.905C63.867,86.813 66.443,83.358 67.655,79.507C68.663,76.303 68.47,72.821 66.824,70.488C64.073,66.588 57.025,65.574 51.576,67.367C48.602,68.345 46.029,70.317 43.966,73.034C38.714,79.842 36.359,87.959 33.713,93.731C32.131,97.184 30.299,101.714 28.086,105.167C23.755,103.249 15.091,102.356 10.4,102.782C4.216,103.353 0,105.517 0,109.627C0,115.004 7.824,118.142 13.929,117.977C19.205,117.775 24.429,116.572 29.255,114.433C31.837,116.815 34.122,118.916 37.179,120.554C40.419,122.291 42.616,123.235 52.397,123.35L79.136,123.35L80.693,115.765ZM16.222,112.001C6.374,111.764 5.272,107.787 15.723,107.773C18.463,107.847 21.096,108.561 23.545,109.971C23.542,109.965 19.849,112.092 16.222,112.001Z" style="fill:red;fill-rule:nonzero;"/>
    </g>
</svg>