<svg xmlns:dc="http://purl.org/dc/elements/1.1/" xmlns:cc="http://web.resource.org/cc/" xmlns:rdf="http://www.w3.org/1999/02/22-rdf-syntax-ns#" xmlns:svg="http://www.w3.org/2000/svg" xmlns="http://www.w3.org/2000/svg" xmlns:sodipodi="http://sodipodi.sourceforge.net/DTD/sodipodi-0.dtd" xmlns:inkscape="http://www.inkscape.org/namespaces/inkscape" id="svg2846" sodipodi:version="0.32" inkscape:version="0.45.1" width="201" height="120" version="1.0" sodipodi:docbase="C:\Users\Chris\Desktop" sodipodi:docname="Peavey_logo.svg" inkscape:output_extension="org.inkscape.output.svg.inkscape">
  <metadata id="metadata2851">
    <rdf:RDF>
      <cc:Work rdf:about="">
        <dc:format>image/svg+xml</dc:format>
        <dc:type rdf:resource="http://purl.org/dc/dcmitype/StillImage"/>
      </cc:Work>
    </rdf:RDF>
  </metadata>
  <defs id="defs2849"/>
  <sodipodi:namedview inkscape:window-height="575" inkscape:window-width="765" inkscape:pageshadow="2" inkscape:pageopacity="0.0" guidetolerance="10.0" gridtolerance="10.0" objecttolerance="10.0" borderopacity="1.0" bordercolor="#666666" pagecolor="#ffffff" id="base" inkscape:zoom="1.5708333" inkscape:cx="38.185282" inkscape:cy="34.611987" inkscape:window-x="47" inkscape:window-y="52" inkscape:current-layer="svg2846"/>
  <g id="g2909" transform="matrix(1.1293934,0,0,1.1810292,158.53434,-217.50594)">
    <path id="path2893" d="M -134.84309,278.1881 C -131.57789,272.11902 -120.75844,252.14637 -115.94,243.2931 C -106.70834,226.33109 -100.77981,214.60304 -101.21645,214.16639 C -101.49349,213.88935 -109.19586,214.39905 -118.33283,215.29906 C -127.4698,216.19906 -135.72464,216.78538 -136.67692,216.60199 C -138.18403,216.31175 -107.74696,209.27166 -57.423077,198.27058 C -49.173077,196.46709 -38.373077,194.06529 -33.423077,192.93326 C -28.473076,191.80123 -19.023073,189.70936 -12.423073,188.28466 C -5.8230727,186.85996 0.47693226,185.47528 1.5769323,185.20759 C 2.6769323,184.93991 -19.823073,196.47711 -48.423077,210.84582 C -77.023077,225.21453 -100.91202,237.49328 -101.50963,238.13193 C -102.10723,238.77057 -103.90723,245.04778 -105.50963,252.08127 L -108.42308,264.86943 L -120.92308,273.00143 C -127.79808,277.47403 -134.45618,281.7971 -135.71885,282.60827 C -137.86464,283.98675 -137.80742,283.69797 -134.84309,278.1881 z " style="fill:red"/>
    <path id="path2891" d="M -91.311565,225.93546 C -87.522897,223.81376 -80.598077,219.94429 -75.923077,217.33664 C -71.248077,214.72899 -66.995577,212.18993 -66.473077,211.69428 C -65.229115,210.51425 -66.77384,210.53819 -82.192165,211.93785 C -94.743903,213.07729 -94.970857,213.14125 -95.525525,215.69506 C -95.835875,217.12399 -96.727285,220.28577 -97.506437,222.72124 C -98.8842,227.02786 -99.296776,229.7931 -98.561564,229.7931 C -98.362733,229.7931 -95.100233,228.05717 -91.311565,225.93546 z " style="fill:red"/>
    <path id="path2889" d="M -28.423076,279.70461 C -31.173076,277.51323 -40.329977,270.51431 -48.771747,264.15147 L -64.120416,252.58265 L -68.907075,255.18788 C -71.539737,256.62075 -73.936698,257.7931 -74.233654,257.7931 C -74.53061,257.7931 -72.749896,251.73925 -70.27651,244.3401 L -65.779445,230.8871 L -62.997379,234.0901 C -61.467243,235.85175 -54.443787,244.4931 -47.389707,253.2931 C -40.335617,262.0931 -31.944866,272.34215 -28.743586,276.06878 C -20.920163,285.17605 -20.872053,285.72177 -28.423076,279.70461 z " style="fill:red"/>
    <path id="path2887" d="M -1.4446177,267.0431 C 0.37965226,261.6806 4.0203823,250.60872 6.6458823,242.43892 L 11.419522,227.58473 L 9.5510423,223.93892 C 8.5233823,221.93372 7.4763723,219.88543 7.2243523,219.38716 C 6.9585923,218.86171 9.1052623,218.75613 12.335492,219.13578 C 17.803842,219.77848 18.010692,219.70851 23.740892,215.27794 C 33.272942,207.90779 35.467272,206.34828 34.901012,207.34644 C 34.605632,207.8671 32.561112,211.4431 30.357632,215.2931 C 28.154152,219.1431 25.112682,224.5431 23.598812,227.2931 C 22.084942,230.0431 17.152402,238.8181 12.637622,246.7931 C 8.1228423,254.7681 2.5182123,264.7806 0.18289226,269.0431 C -2.1524377,273.3056 -4.2202777,276.7931 -4.4123177,276.7931 C -4.6043577,276.7931 -3.2688977,272.4056 -1.4446177,267.0431 z " style="fill:red"/>
    <path id="path2885" d="M -99.822298,254.17583 C -91.028384,235.39092 -90.07895,233.79683 -87.656231,233.74919 C -86.427996,233.72504 -82.048077,233.31404 -77.923077,232.83586 C -73.798077,232.35768 -70.318544,232.06947 -70.190783,232.1954 C -70.063021,232.32133 -72.738819,234.3851 -76.137001,236.78157 C -81.404214,240.4961 -82.028457,241.24432 -80.369296,241.85438 C -73.411118,244.41286 -73.363016,243.90063 -81.05768,249.18502 L -88.180853,254.07694 L -84.301965,257.33928 L -80.423077,260.60162 L -83.923077,261.16107 C -85.848077,261.46876 -91.292907,262.32999 -96.022698,263.0749 L -104.62232,264.42929 L -99.822298,254.17583 z " style="fill:red"/>
    <path id="path2877" d="M -49.695837,241.82332 C -54.707617,235.2067 -58.687833,229.7931 -58.54077,229.7931 C -58.393706,229.7931 -54.932067,230.93023 -50.848227,232.32005 L -43.423077,234.84699 L -30.944316,221.57005 C -15.799393,205.4564 -3.5313377,192.93607 -4.2169977,194.2931 C -4.4948877,194.8431 -8.4324327,201.3681 -12.967093,208.7931 C -17.501753,216.2181 -25.245763,229.0431 -30.176016,237.2931 C -35.106267,245.5431 -39.464877,252.6442 -39.861807,253.07332 C -40.258747,253.50244 -44.684057,248.43994 -49.695837,241.82332 z " style="fill:red"/>
    <path id="path2875" d="M -24.240133,236.94977 L -16.490973,222.14318 L -7.0568627,220.95163 C -1.8681077,220.29628 2.5414623,219.9243 2.7421623,220.125 C 2.9428723,220.32571 0.62530226,222.13774 -2.4079877,224.15173 C -5.4412927,226.16572 -7.9230727,228.22318 -7.9230727,228.72386 C -7.9230727,229.22454 -6.5782327,229.92957 -4.9345377,230.29058 C -3.2908377,230.6516 -1.7388977,231.28207 -1.4857777,231.69164 C -1.2326477,232.1012 -3.9115277,234.33372 -7.4388327,236.65279 C -10.966143,238.97186 -14.085193,241.24641 -14.370063,241.70734 C -14.654943,242.16827 -13.087753,243.79298 -10.887433,245.3178 C -8.6871127,246.84263 -7.0241427,248.22751 -7.1919527,248.39532 C -7.3597627,248.56312 -11.755413,249.17835 -16.960063,249.76249 C -22.164723,250.34662 -27.675476,251.0342 -29.206186,251.29045 C -31.964246,251.75215 -31.919536,251.62305 -24.240133,236.94977 z " style="fill:red"/>
  </g>
</svg>