<svg xmlns:svg="http://www.w3.org/2000/svg" xmlns="http://www.w3.org/2000/svg" id="svg2124" version="1.1" width="1024" height="266" viewBox="-1.56000585 -1.56000585 212.4872017 55.1202067">
  <defs id="defs2121"/>
  <path id="path2048" d="m 173.62304,0 c -2.819,0.407 -4.74514,1.57178 -6.24414,3.30078 -1.438,1.66 -2.57278,3.92889 -2.42578,7.08789 0.137,2.952 1.43605,4.97997 2.99805,6.54297 1.557,1.556 3.76772,2.75391 6.76172,2.75391 3.058,0 5.14706,-1.19791 6.78906,-2.75391 1.592,-1.509 2.87,-3.71957 3,-6.51757 0.152,-3.24 -0.97378,-5.43724 -2.42578,-7.11524 C 180.57317,1.56283 178.65503,0.411 175.83203,0 Z m 24.97461,0 c -4.236,0.522 -7.00078,2.69905 -8.42578,5.99805 -0.772,1.79 -0.98423,4.10677 -0.49023,6.13477 0.882,3.62 3.57622,6.3116 7.19922,7.2246 2.002,0.505 4.49184,0.29715 6.21484,-0.38085 3.232,-1.272 5.77348,-4.13569 6.27148,-8.17969 V 8.83399 c -0.333,-2.593 -1.4197,-4.61639 -2.9707,-6.02539 C 204.84548,1.4006 202.90668,0.2 200.17968,0 Z m 1.42383,25.13282 c -0.36458,-0.0179 -0.7393,-0.0166 -1.12305,0.006 -3.016,0.178 -5.08203,1.3457 -6.70703,2.9707 -1.548,1.548 -2.81959,3.83775 -2.80859,6.84375 0.01,3.045 1.24898,5.2607 2.83398,6.8457 1.625,1.624 3.69364,2.81171 6.68164,2.97071 3.105,0.165 5.46558,-1.01643 7.14258,-2.48243 1.703,-1.49 2.97917,-3.49356 3.32617,-6.35156 V 33.9728 c -0.385,-2.873 -1.57482,-4.84286 -3.29882,-6.38086 -1.4245,-1.27137 -3.49481,-2.33365 -6.04688,-2.45898 z m -25.66211,0.006 c -1.497,0.071 -2.89412,0.44846 -3.95312,0.98046 -1.138,0.573 -1.98725,1.27461 -2.78125,2.09961 -1.541,1.6 -2.77054,3.96854 -2.64453,7.14454 0.12099,3.03 1.39573,5.11137 3.05273,6.73437 1.603,1.571 3.9885,2.81888 7.0625,2.67188 2.981,-0.143 5.06603,-1.37969 6.70703,-3.05469 1.598,-1.63 2.75988,-3.92524 2.67188,-7.11524 -0.084,-3.037 -1.45339,-5.19072 -3.0254,-6.76172 -1.512,-1.513 -3.99984,-2.84621 -7.08984,-2.69921 z" style="fill:red;fill-opacity:1"/>
  <path id="path2052" d="m 73.66992,21.10352 c -0.035,0.011 -0.0557,0.035 -0.0547,0.082 -0.578,2.803 -1.19517,5.85095 -1.82617,8.75195 -0.806,-1.186 -1.91558,-2.15076 -3.51758,-2.50976 -1.72,-0.385 -3.68923,-0.0754 -4.99023,0.59961 -2.437,1.264 -4.15817,4.11121 -4.82617,7.19921 -0.337,1.557 -0.41138,3.67404 -0.10938,5.20704 0.635,3.213 2.95416,5.48485 7.03516,4.88085 1.707,-0.253 2.91278,-1.18226 3.92578,-2.07226 -0.13,0.597 -0.24952,1.05614 -0.35352,1.74414 h 4.44532 c 1.581,-7.864 3.35425,-16.05881 4.90625,-23.88281 z m 8.86133,0 c -0.035,0.011 -0.0547,0.035 -0.0527,0.082 -1.651,8.008 -3.3252,15.96678 -4.9082,23.80078 h 4.2539 c 0.183,-0.9 0.40627,-1.91895 0.57227,-2.75195 0.723,1.306 1.68645,2.27764 3.18945,2.80664 1.565,0.552 3.66297,0.4152 5.04297,-0.2168 2.641,-1.208 4.44399,-3.76106 5.20899,-6.78906 0.393,-1.559 0.59617,-3.61575 0.32617,-5.34375 -0.245,-1.564 -0.82752,-2.95008 -1.85352,-3.95508 -1.036,-1.013 -2.61565,-1.57931 -4.47265,-1.44531 -1.874,0.136 -3.10525,0.8454 -4.28125,1.6914 0.565,-2.741 1.06171,-5.0389 1.63671,-7.8789 -1.447,10e-4 -3.12511,0 -4.66211,0 z m 55.24023,6.16015 c -1.424,0.067 -2.73103,0.58957 -3.70703,1.22657 -1.925,1.257 -3.16036,3.27025 -3.81836,5.78125 -0.296,1.131 -0.49889,2.5535 -0.46289,4.0625 0.073,3.031 1.1482,5.28348 3.4082,6.27148 1.183,0.517 2.80453,0.5958 4.14453,0.2168 1.253,-0.354 2.20377,-0.98311 3.13477,-1.66211 -0.414,1.825 -0.55952,3.90625 -1.85352,4.90625 -1.382,0.839 -5.09917,1.02995 -4.82617,-1.49805 -1.77,-0.221 -3.25855,-0.47098 -4.93554,-0.70898 -0.469,4.545 2.54696,6.05176 6.54296,6.13476 2.166,0.045 4.08882,-0.15436 5.50782,-0.81836 2.237,-1.047 3.08271,-3.18895 3.76172,-5.75195 0.21699,-0.817 0.41126,-1.64373 0.57226,-2.42773 1.023,-4.995 2.09277,-10.14793 3.13477,-15.29493 -1.399,-0.063 -2.91633,-0.009 -4.36133,-0.0273 -0.25,0.907 -0.4083,1.99532 -0.6543,2.94532 -0.511,-0.978 -1.212,-1.80839 -2.125,-2.40039 -0.887,-0.575 -2.00689,-1.02408 -3.46289,-0.95508 z m -9.51758,0.002 c -2.47,0.131 -3.83589,2.09397 -4.96289,3.54297 0.196,-0.984 0.46096,-2.10442 0.62696,-3.10742 -1.39,-0.064 -2.89699,-0.009 -4.33399,-0.0273 -1.181,5.485 -2.41961,11.5075 -3.59961,17.3125 h 4.68945 c 0.476,-2.141 0.869,-4.64992 1.5,-7.16992 0.309,-1.232 0.62849,-2.4392 1.14649,-3.4082 0.943,-1.764 2.88681,-3.57391 5.50781,-2.75391 0.637,-1.309 1.20583,-2.51809 1.79883,-3.87109 -0.674,-0.264 -1.37805,-0.57058 -2.37305,-0.51758 z m -98.67187,0.0215 c -0.40595,-0.019 -0.82636,-0.018 -1.25586,0.002 -3.988,0.185 -6.29233,1.80055 -7.36133,4.93555 1.507,0.121 2.99804,0.27781 4.58204,0.38281 0.193,-0.644 0.56625,-1.28272 1.28125,-1.63672 0.889,-0.44 2.25903,-0.47134 3.08203,-0.0273 1.01,0.544 1.06526,1.902 0.57226,3 -3.297,0.877 -7.46668,0.39472 -9.67968,2.26172 -1.09,0.92 -1.65646,2.41446 -1.68946,4.06446 -0.066,3.255 2.55014,5.82923 6.24414,4.99023 1.561,-0.355 2.77469,-1.18795 3.67969,-2.12695 0.027,0.691 0.17913,1.35651 0.32813,1.85351 h 4.55273 c -0.705,-1.921 -0.23627,-4.11614 0.0527,-5.61914 0.387,-1.993 0.83753,-3.76512 1.14453,-5.45312 0.202,-1.108 0.26269,-2.14139 0.0547,-3.02539 -0.55387,-2.359 -2.74623,-3.46843 -5.58789,-3.60157 z m -19.74023,0.004 c -2.391,0.112 -4.07678,0.59375 -5.42578,1.71875 -1.243,1.038 -2.30646,2.77596 -1.68946,5.12696 0.501,1.909 2.04641,2.62622 3.81641,3.32422 1.193,0.471 2.75308,0.87792 3.95508,1.41992 0.583,0.263 1.1765,0.6067 1.0625,1.4707 -0.122,0.926 -1.24941,1.44738 -2.31641,1.60938 -1.868,0.283 -3.37219,-0.32897 -4.11719,-1.41797 C 4.89195,40.20013 4.74366,39.7856 4.47266,39.3986 3.00366,39.6656 1.468,39.86692 0,40.13492 c 0.787,2.808 2.70419,4.46863 5.61719,5.01563 3.344,0.628 6.80058,0.10895 8.64258,-1.49805 1.287,-1.123 2.68586,-3.25153 1.88086,-5.64453 -0.988,-2.94 -4.66079,-3.41101 -7.55079,-4.41601 -0.692,-0.24 -1.48637,-0.52386 -1.60937,-1.25586 -0.131,-0.781 0.5055,-1.32774 1.0625,-1.55274 1.326,-0.536 3.31559,-0.22808 4.30859,0.54492 0.429,0.333 0.68439,0.85291 0.90039,1.25391 1.449,-0.222 2.8503,-0.49233 4.2793,-0.73633 -0.698,-3.4 -3.54145,-4.74769 -7.68945,-4.55469 z m 40.8164,0 c -1.307,0.075 -2.31014,0.38605 -3.24414,0.87305 -0.912,0.476 -1.66473,1.07472 -2.42773,1.63672 0.147,-0.68 0.33516,-1.46495 0.41016,-2.12695 h -4.41797 c -1.166,5.643 -2.43627,11.6425 -3.57227,17.3125 h 4.66211 c 0.694,-3 1.07578,-5.51589 1.80078,-8.58789 0.308,-1.305 0.72403,-2.69838 1.58203,-3.73438 0.713,-0.863 1.98191,-2.00058 3.37891,-2.01758 0.751,-0.009 1.26637,0.21696 1.60937,0.62696 0.594,0.707 0.34707,1.88267 0.16407,2.88867 -0.673,3.713 -1.59638,7.25022 -2.23438,10.82422 h 4.6875 c 0.667,-3.604 1.62063,-7.42542 2.26563,-11.23242 0.128,-0.76 0.32948,-1.53674 0.27148,-2.42774 -0.173,-2.684 -2.11555,-4.19716 -4.93555,-4.03516 z m 56.95703,0 c -3.838,0.178 -6.10811,1.80932 -7.66211,4.44532 -1.46099,2.476 -2.12332,6.44825 -0.73632,9.40625 1.29499,2.762 3.87548,4.52461 7.77148,4.22461 3.705,-0.286 5.76554,-2.32197 7.06054,-5.04297 -1.383,-0.243 -2.78087,-0.47299 -4.17187,-0.70899 -0.69,1.225 -1.76431,2.42578 -3.57031,2.42578 -1.141,0 -2.07353,-0.60662 -2.64453,-1.39062 -0.514,-0.704 -0.77125,-1.65898 -0.65625,-2.83398 h 11.58789 c 0.584,-2.659 0.41762,-5.63074 -0.73438,-7.55274 -1.124,-1.876 -3.22514,-3.11266 -6.24414,-2.97266 z m -18.67187,3.37305 c 1.68725,0.19334 2.64677,1.80427 2.77539,3.41602 0.094,1.173 -0.11381,2.34654 -0.38281,3.43554 -0.515,1.518 -1.1491,2.86469 -2.3711,3.67969 -0.65,0.433 -1.4414,0.72661 -2.3164,0.59961 -1.511,-0.22 -2.57691,-1.6628 -2.75391,-3.2168 -0.105,-0.927 -0.009,-1.86829 0.16211,-2.77929 0.31,-1.642 0.9695,-3.04216 1.9375,-4.03516 0.559,-0.572 1.28564,-0.97584 2.18164,-1.08984 0.27038,-0.0344 0.52654,-0.0374 0.76758,-0.01 z m 49.67187,0.008 c 0.529,-0.054 1.22511,0.11986 1.66211,0.38086 1.109,0.664 1.87478,2.03844 1.80078,3.89844 -0.088,2.209 -0.87364,4.30281 -2.18164,5.50781 -0.998,0.92 -2.64681,1.5186 -4.00781,0.6836 -0.574,-0.35201 -1.12494,-1.13786 -1.33594,-1.88086 -0.392,-1.382 -0.16691,-2.9086 0.24609,-4.3086 0.407,-1.383 0.95849,-2.54417 1.77149,-3.32617 0.471,-0.453 1.14992,-0.86308 2.04492,-0.95508 z m -31.32812,0.002 c 2.383,-0.203 3.56112,1.68495 3.32812,4.25195 h -7.14453 c 0.437,-2.203 1.52141,-4.05695 3.81641,-4.25195 z M 67.29102,30.7836 c 1.272,-0.018 2.29725,0.93051 2.78125,1.85351 0.461,0.879 0.62586,2.4911 0.38086,3.8711 -0.423,2.382 -1.73282,4.9374 -4.00782,5.3164 -1.225,0.204 -2.20025,-0.30478 -2.78125,-0.92578 -1.292,-1.381 -1.11954,-4.2848 -0.43554,-6.2168 0.31,-0.878 0.79528,-1.85415 1.36328,-2.53515 0.574,-0.689 1.48622,-1.34828 2.69922,-1.36328 z m -37.46289,6.18945 h 0.0547 c -0.272,1.126 -0.43282,2.3058 -1.00782,3.2168 -0.617,0.976 -2.74493,2.26331 -4.33593,1.44531 -0.976,-0.502 -1.40027,-2.01266 -0.57227,-2.97266 0.164,-0.191 0.49233,-0.41892 0.73633,-0.54492 1.37,-0.71 3.468,-0.77853 5.125,-1.14453 z" style="fill:red;fill-opacity:1"/>
</svg>